<svg version="1.2" xmlns="http://www.w3.org/2000/svg" viewBox="0 0 133 138" width="133" height="138"><defs><clipPath clipPathUnits="userSpaceOnUse" id="cp1"><path d="m614 444h-1920v-480h1920z"/></clipPath></defs><style>.a{fill:#ffc545}.b{fill:#ea9e4f}.c{fill:#fff}</style><g clip-path="url(#cp1)"><path class="a" d="m73 65.7c2.1-0.1 3.8-1.9 3.9-4.3 0.5-6.7 1.4-13.3 1.7-20 0.5-7.9 0.2-16-2.3-23.4-2.5-7.3-7.4-14-14.1-16.6-6.6-2.6-14.9-0.5-18.9 6.1-4.7 7.7-2.2 18.3 1.6 26.7 3.5 8 8.1 15.6 13.4 22.3 2.2 2.8 4.6 5.6 7.6 7.4 2.1 1.2 4.4 1.9 7.1 1.8z"/><path class="a" d="m66.7 62.6c-10.5-14.5-25.5-24.9-41.8-29.1-6.5-1.7-14.1-2.2-19.2 2.6-4.8 4.4-6.1 12.3-4.1 18.8 2 6.5 6.9 11.5 12.4 14.5 5.5 3 11.7 4.3 17.8 5 8.8 1.1 17.6 1.3 26.4 0.6 2.6-0.2 5.4-0.6 7.4-2.5 2-2 3.6-6.6 1.1-9.9z"/><path class="a" d="m67.6 72.7c-9.8-1-19.9-1.1-29.2 2.5-9.3 3.6-17.7 11.5-20.2 22.1-1.5 6.3-0.4 13.7 4.1 17.8 3.2 2.9 7.7 3.6 11.7 2.7 4.1-0.8 7.8-3 11.2-5.5 8-5.6 15.1-12.6 21.1-20.6 1.6-2.2 3.2-4.5 3.9-7.2 0.7-2.7 0.4-5.9-2.6-11.8z"/><path class="a" d="m75.8 74.1c-2.6-1.4-5.7-0.1-6.9 2.9-4.4 11.6-6.9 24.2-7.2 36.8-0.2 5.7 0.2 11.7 3 16.4 3.2 5.4 9.3 8.4 15 7.4 5.8-0.9 10.8-5.6 12.9-11.7 2.2-6.2 1.3-13.2-0.3-19.7-1.8-8-4.7-15.6-8.4-22.8-1.9-3.6-4.5-7.3-8.1-9.3z"/><path class="a" d="m73.9 61.8c5.8-15.9 11.9-32.3 23.3-43.8 5-4.9 12.2-8.9 18.2-5.7 4.3 2.4 6.6 7.8 7 13 0.7 10.5-5 20.5-12.6 26.7-7.5 6.2-16.7 9.4-25.7 12.5-2 0.7-4 1.4-6 1.2-2.1-0.3-5-1.8-4.2-3.9z"/><path class="a" d="m72.5 64.9c-1.5 3.2-0.6 7.2 1.3 10.1 2 3 4.9 5.2 7.8 7.2 8.1 5.7 16.8 10.8 26.5 12.9 4.7 1.1 9.9 1.3 14.2-1.1 4.3-2.4 6.9-7 8.6-11.7 1.8-4.9 2.7-10.8-0.3-15.1-2.6-3.8-7.3-5.2-11.8-6-11.8-2.3-44.8 0.5-46.3 3.7z"/><path class="b" d="m67.9 81.7c5.2 12 8.9 25 9.9 38.4 0 0.6 0.8 0.6 0.9 0 0.8-13.5-0.4-27.4-4.5-40.7-1.5-4.6-8.1-1.7-6.3 2.3z"/><path class="b" d="m70.4 80.2c6.8 9.1 12.1 20 14.2 31.8 0.1 0.5 0.9 0.4 0.8-0.1-0.2-12-3.1-24.5-9.4-35.4-2.2-3.7-8 0.7-5.6 3.7z"/><path class="b" d="m66.6 82.7c0.7 11.2 2 22.5 2.9 33.7 0.1 0.5 0.8 0.5 0.9 0 0.9-11.2 2.2-22.5 2.9-33.7 0.3-3.8-7-3.8-6.7 0z"/><path class="b" d="m64.2 75.9c-10.9 4.5-19.4 13.3-24.3 23.2-0.2 0.4 0.5 0.8 0.7 0.4 6.4-8.8 16-14.7 25.8-17.2 3.2-0.8 1.6-7.9-2.2-6.4z"/><path class="b" d="m67.7 74.7c-4.9 7.1-9.3 14.5-14.1 21.6-0.2 0.3 0.4 0.8 0.7 0.6 6.1-6 12.5-11.8 18.5-17.9 2.1-2.1-3.5-6.7-5.1-4.3z"/><path class="b" d="m63.7 72.8c-13 4.6-24.7 12-34.9 20.6-0.5 0.4 0 1 0.5 0.7 11.2-7.1 23.7-11.9 36.3-14.9 4.3-0.9 2.6-8-1.9-6.4z"/><path class="b" d="m64.3 71.9c-5.1-0.3-10.1 1-14.4 3.3-4.3 2.2-8 5.5-10.5 9.3-0.3 0.4 0.3 0.8 0.6 0.6 3.2-3.2 7.2-5.2 11.3-6.3 4.1-1.1 8.4-1.1 12.2-0.2 2.5 0.6 4.5-6.4 0.8-6.7z"/><path class="b" d="m64.6 69.4c-14.2-5-29.4-6.3-43.9-4.8-0.6 0.1-0.6 0.8 0.1 0.9 14.5 0.3 28.6 4.1 41.3 10.1 4.3 2.1 7.4-4.4 2.5-6.2z"/><path class="b" d="m69 68.5c-9.1-5.4-19.1-9.1-29.1-11.9-0.5-0.2-0.8 0.6-0.3 0.8 9.3 4.5 17.8 10.4 25.7 16.6 2.6 2.2 6.9-3.6 3.7-5.5z"/><path class="b" d="m71 66.9c-9.9-7.2-20.8-12.9-31.7-17.8-0.5-0.2-0.9 0.5-0.4 0.8 10.1 6.5 19.2 14.2 27.9 22.2 2.9 2.8 7.6-2.7 4.2-5.2z"/><path class="b" d="m71.2 67.7c-6-13.1-11.5-26.5-15.7-40.4-0.2-0.7-0.9-0.5-0.8 0.1 2.4 14.4 5.5 28.8 10.3 42.8 1.6 4.7 8.3 1.9 6.2-2.5z"/><path class="b" d="m75.3 69.9c-3.8-13.4-8.2-26.6-12.1-40-0.2-0.6-1-0.4-0.9 0.2 2.3 13.8 4.1 27.6 6.5 41.3 0.8 4.7 7.9 3.1 6.5-1.5z"/><path class="b" d="m77.9 70.3c-0.4-12.9-3.3-25.5-7.5-37.3-0.2-0.5-0.9-0.3-0.8 0.2 2.5 12.3 2.7 24.8 1.6 37-0.4 4.1 6.8 4.6 6.7 0.1z"/><path class="b" d="m79.2 68c6.7-11.6 13-23.6 19.6-35.3 0.3-0.5-0.4-0.9-0.7-0.5-8.1 10.8-16.6 21.3-24.6 32.1-2.7 3.7 3.3 7.7 5.7 3.7z"/><path class="b" d="m77.8 73.9c8.2-10 16-20.3 24-30.4 0.4-0.5-0.2-1-0.6-0.6-9.4 8.9-19.1 17.5-28.3 26.5-3.2 3 2.1 7.9 4.9 4.5z"/><path class="b" d="m75.7 74.5c10-7.5 19.2-16 28-24.6 0.4-0.4-0.1-1-0.6-0.7-9.9 7.3-20.5 13.6-31.1 19.7-3.6 2 0.2 8.1 3.7 5.6z"/><path class="b" d="m75.9 75.1c12.4-4.3 25.9-6.3 39.4-4.9 0.5 0.1 0.7-0.7 0.1-0.9-13.2-3.2-27.5-3.8-41.3-0.7-4.8 1.2-2.3 8 1.8 6.5z"/><path class="b" d="m75.8 81.2c11.1-1.9 22.8-2.6 34.4-0.9 0.5 0 0.7-0.7 0.2-0.9-11.3-3.4-23.2-5.4-35.3-4.9-4.2 0.2-3.1 7.3 0.7 6.7z"/><path class="b" d="m75 77.4c9.2-2.6 19-4.4 29-4.3 0.4 0.1 0.5-0.7 0.1-0.8-9.8-2-20.2-2.8-30.4-1.4-3.6 0.5-1.8 7.5 1.3 6.5z"/><path class="b" d="m72 82.5c9.8-0.6 20.2 0.3 29.9 3.9 0.5 0.2 0.8-0.5 0.4-0.8-9-5.2-19.4-9-30.3-9.8-3.8-0.2-3.4 7 0 6.7z"/><path  d="m68.5 59.7c-1.2-3.2-1.6-6.7-1.1-10 0.1-1 0.6-2.3 1.5-2.3 0.9 0 1.4 1.2 1.7 2.1q1.1 4.6 1.5 9.3c0.3-3.1 1.5-6.2 3.5-8.4 0.7-0.9 1.9-1.6 2.8-1 0.8 0.5 0.8 1.8 0.7 2.8-0.4 2.9-1.2 5.7-2.4 8.2 1.7-2 3.9-3.6 6.3-4.5 0.8-0.3 1.8-0.5 2.4 0.1 0.8 0.9 0.3 2.4-0.4 3.4-1.5 2.1-3.7 3.6-6.1 4.1 2.3-0.1 4.7 0.3 7 1.2 0.6 0.2 1.4 0.6 1.7 1.3 1.5 3.1-2.2 4.3-8.5 2.7 2.1 1.8 3.8 4.2 5 6.9 0.4 0.9 0.8 2.1 0.4 3-0.7 1.4-2.5 1.3-3.8 0.7-2.3-1.2-4.3-3.4-5.3-6q1.8 3.9 3 8.2c0.3 1.1 0.6 2.3 0 3.3-0.6 0.8-1.8 1.1-2.7 0.7-0.9-0.4-1.6-1.3-2.2-2.1-1.6-2.6-2.6-5.7-2.6-8.9-0.3 1.7 0 3.4 0 5.2 0.1 1.7-0.5 3.7-1.9 4.4-1.8 0.9-4-1-4.4-3.2-0.4-2.2 0.4-4.5 1.2-6.6-1.5 1.7-4.4 3.8-5.5 4.1-1 0.3-2.4-0.1-2.8-1.3-0.2-0.8 0.1-1.8 0.4-2.6 1.2-2.5 3.4-4.4 5.9-5.2-2.3 0.8-5.5 0.6-7.2-0.4-1.1-0.6-1.8-2.2-1.2-3.4 0.4-0.8 1.2-1.1 2-1.3 2.2-0.5 4.4-0.5 6.5 0.1-2.2-1.4-4.4-2.8-5.9-5.1-0.7-1-1.2-2.4-0.7-3.6 0.5-1.4 2.2-1.7 3.5-1.2 2.4 1.1 3.7 3.2 5.7 6.3q-2.2-3.3-3.9-7c-0.3-0.7-0.6-1.3-0.6-2.1 0-0.7 0.4-1.5 1-1.6 0.9-0.2 1.6 0.6 2.1 1.4 1.2 2.1 2.2 4.4 3.4 8.3z"/><path class="c" d="m71.8 60.5c-0.7-0.6-1.7-0.7-2.5-0.3-0.8 0.4-1.4 1.3-1.4 2.3-1.3 0.2-2.4 1.2-2.8 2.5-0.4 1.4-0.1 3 0.9 4-0.5 1.4 0 3.1 1.1 3.9 1.1 0.9 2.7 0.8 3.7-0.1 0.9 1 2.4 1.2 3.5 0.6 1.1-0.5 1.9-1.9 1.8-3.3 1.2-0.6 2-2 2.1-3.5 0-1.4-0.7-2.9-1.8-3.6 0-0.9-0.6-1.8-1.3-2.2-0.8-0.5-1.7-0.4-3.3-0.3z"/></g></svg>