<svg version="1.2" xmlns="http://www.w3.org/2000/svg" viewBox="0 0 1920 480" width="1920" height="480"><defs><clipPath clipPathUnits="userSpaceOnUse" id="cp1"><path d="m1920 480h-1920v-480h1920z"/></clipPath></defs><style>tspan{white-space:pre}.a{fill:#f9e4e4}.b{fill:#f4d3d3}.c{fill:none;stroke:#fff;stroke-miterlimit:10;stroke-width:3}.d{fill:#837db8}.e{fill:#36456a}.f{fill:#8882b3}.g{fill:#6686ca}.h{fill:#6b8ebb}.i{fill:#225ea0}.j{fill:#ffc545}.k{fill:#ea9e4f}.l{fill:#f4d071}.m{fill:#d55518}.n{fill:#d46c0d}.o{fill:#ce3709}.p{fill:#fff}.q{fill:#efba58}</style><path class="a" d="m1920 480h-1920v-480h1920z"/><g clip-path="url(#cp1)"><path class="b" d="m1602.2 12c5 20.2 20.3 39 38.7 50 28.2 16.8 62 20.5 94.2 27.2 32.2 6.8 66 18.5 84.9 45.4 22.7 32.2 17.7 76.9 35.9 111.9 12.5 24.2 36.2 42.3 62.8 47.9 68.3 14.7 126.2-49.5 127-114.3 0.8-67.4-48.3-125.3-60.5-191.7-5.6-30.2-3.7-62.9-18.7-89.8-19-33.9-65.5-49.2-100.9-33.2-38.6 17.3-59.5 63.6-99.7 76.8-36 11.8-72.5-7.2-109.1-0.9-22.3 3.8-44.3 17-52.8 38-4.3 10.6-4.5 21.8-1.8 32.7z"/><path class="b" d="m68 123.8c13.1 19.7 21 43.3 22.3 65.5 2.6 45.1-17.9 92.7 0.2 134 13.1 30 43.9 48.7 75.3 58.1 31.3 9.5 64.4 11.6 96.2 19.4 43.5 10.6 76 36.1 102.2 71.8 18.3 25.1 30.4 58.6 18 87-8.5 19.4-26.9 32.7-45.8 42.2-25.3 12.6-54.3 20.1-82 14.1-51.1-10.9-85.4-64-136.7-74.4-33.3-6.7-67 6-100.3 12.7-33.3 6.8-73.2 5.2-94.2-21.5-19.4-24.9-14.2-60.6-5-90.7 15.9-52.5 40.9-105.1 33.8-159.5-4-30.7-18.1-59.1-26.3-89-8.3-29.9-9.7-64.5 9-89.2 14.4-18.9 39.3-28.5 62.9-26.5 29.6 2.4 54 21.2 70.4 46z"/><path class="c" d="m1558.3-14.5c-0.5 4.1-0.4 8.4 0.3 12.8 3.7 22.7 21.7 41.1 42.7 50.3 21 9.3 44.7 10.6 67.6 9.6 22.9-1 45.8-4.3 68.7-3.6 23 0.6 46.6 5.5 65.1 19 33 24.2 42.3 69.6 41.6 110.6-0.6 32.7-5.5 67.2 8.5 96.8 10.9 22.9 32.6 39.8 56.8 47.2 34.7 10.8 80.6 6.2 103.4-25.2 18.2-25 16.6-59.8 6.6-89.2-10-29.3-27.2-55.7-38.5-84.5-16.2-41-20.2-86.9-9.1-129.5 7-27 19.5-57.1 5.2-81.1-11.9-19.9-38.9-26.3-61.5-21.2-22.6 5.2-41.8 19.5-60.4 33.4-18.5 13.9-37.8 28.2-60.3 33.3-29.1 6.7-59.3-2.6-87.4-12.8-28-10.3-56.9-21.8-86.6-19.4-28.2 2.2-59.3 24.3-62.7 53.5z"/><path class="c" d="m-75.5 64.3c21.3-12.7 47.2-20.1 72.1-20.3 20.2-0.1 41 5.7 56.3 19 20.3 17.7 28.3 46.2 27.8 73.1-0.4 26.9-8.2 53.1-14.5 79.3-6.3 26.1-11.2 53.4-6 79.8 6.9 34.9 32.6 65.6 65.7 78.6 32 12.5 67.7 8.9 101.9 5.1 34.1-3.7 69.9-7.3 101.8 5.4 40.5 16 55.1 54.8 52 95.5-2.9 37.9-32.1 64.1-70.3 57.9-12.9-2.2-24.7-8.7-36.6-14.1-28-12.8-58.6-20.1-89.5-21.3-14.1-0.6-28.3 0.1-41.9 3.8-14.9 4.1-28.6 11.6-42.5 18.5-20.4 10-41.9 18.8-64.5 20.9-22.6 2.2-46.8-3-63.8-18-21.5-19-28.3-50.2-25.7-78.8 2.6-28.5 13.2-55.6 21.2-83.1 10.8-37.2 17-77.2 7-114.6-11.4-43-42.6-77.7-61.4-117.9-7.1-15-12.1-33.4-3.1-47.2"/><path class="d" d="m1756.7 89.4c3.1 10.4-1.6 22-9 29.9-7.5 8-17.4 13.1-27.1 18.1-0.9-10.4 1.9-21 7.8-29.6 6-8.5 15-14.9 28.3-18.4z"/><path class="d" d="m1840.7 72.9c-6.7-6.8-11-16-11.9-25.6-0.9-9.5 1.6-19.4 6.9-27.3 6.4 7.5 11.6 16.2 13.4 25.9 1.7 9.7-0.4 20.4-8.4 27z"/><path class="d" d="m1826.2 11c-6.7 7.2-15.9 12.2-25.6 13.9-9.7 1.7-20 0.1-28.8-4.4 5.3-8.5 14.3-14.7 24.2-16.6 9.9-1.8 20.5 0.6 30.2 7.1z"/><path class="d" d="m1798 38.2c-7.4 7.3-17.3 12.1-27.6 13.2-10.3 1.2-21-1.3-29.8-6.8 5.8-9 15.8-15.1 26.4-16.4 10.6-1.2 21.7 2.5 31 10z"/><path class="d" d="m1804.8 46.6c-8.6 8.4-13.4 20.6-12.8 32.7 0.6 12 6.6 23.7 15.9 31.2 8.7-8.6 13.6-20.9 13.4-33.1-0.2-12.2-5.5-24.3-16.5-30.8z"/><path class="d" d="m1788.5 132.4c5.4-7.9 7-18.3 4.4-27.5-2.7-9.2-9.6-17.2-18.4-20.9-3.5 8.4-4.1 18-1.6 26.9 2.4 8.8 7.8 16.8 15.6 21.5z"/><path class="d" d="m1763.5 73.4c-4.3 8.5-14.2 13.2-23.8 13.3-9.6 0.1-18.8-3.8-26.9-8.9 6.7-6.7 15.2-11.7 24.5-13.1 9.4-1.4 19.5 1.2 26.2 8.7z"/><path class="e" d="m1731.4 119.9q15-19.1 31-37.4 16-18.3 32.9-35.8c11.3-11.6 22.7-23.1 34.8-33.9 6.1-5.4 12.2-10.7 18.5-15.8q4.7-3.8 9.5-7.6c3.2-2.5 6.4-5 9.7-7.3 0.1-0.1 0.2-0.1 0.2 0 0.1 0.1 0.1 0.2 0 0.2l-17.9 16.4c-5.9 5.5-11.9 11-17.7 16.5-11.8 11.1-23.7 22-35.2 33.4q-17.3 17-33.6 35-16.4 17.8-31.9 36.5c-0.1 0.1-0.2 0.1-0.3 0 0 0 0-0.1 0-0.2z"/><path class="e" d="m1719.4 77.5c18.1-0.1 36.1-2.1 53.8-5.8 0.2 0 0.5 0.1 0.5 0.4 0.6 8.4 2 16.6 4.1 24.7 1.1 4 2.3 8 3.8 11.9q2.1 5.9 4.8 11.6 0 0 0 0-0.1 0.1-0.1 0-3.1-5.5-5.4-11.3c-1.6-3.9-3-7.9-4.1-12-2.2-8.1-3.6-16.4-4-24.8l0.6 0.4c-8.9 1.7-17.9 3.1-26.9 3.9-9 0.8-18.1 1.2-27.1 1.1q-0.1 0-0.1-0.1 0 0 0.1 0z"/><path class="e" d="m1805.6 96.4c-0.5-5-0.6-10-0.7-15q0-7.5 0.2-15 0.2-7.5 0.6-15c0.3-5 0.7-10 1.2-15l0.5 0.4-15.4 1.8q-7.7 0.9-15.4 1.7c-5.1 0.6-10.3 1.1-15.4 1.6q-7.7 0.7-15.5 1.3 0 0 0 0 0-0.1 0-0.1 7.7-1.1 15.4-2c5.1-0.6 10.2-1.3 15.4-1.8q7.7-0.9 15.4-1.7l15.4-1.6c0.2 0 0.4 0.2 0.4 0.4q0 0 0 0.1c-0.6 4.9-1 9.9-1.4 14.9q-0.4 7.5-0.7 15-0.3 7.5-0.4 15c0 5 0.1 10 0.5 15q0 0.1-0.1 0.1 0 0 0-0.1z"/><path class="e" d="m1841.8 72.3c-2.4-20.6-5.6-41.2-8.6-61.7l0.4 0.3q-7.7 0.5-15.3 1.3-7.7 0.9-15.2 2.1c-5.1 0.8-10.2 1.7-15.2 2.8q-7.5 1.5-15 3.4 0 0-0.1 0 0-0.1 0.1-0.1 7.3-2.3 14.9-4.1c5-1.2 10-2.2 15.1-3.1q7.6-1.2 15.3-2 7.7-0.8 15.4-1.1c0.2-0.1 0.4 0.1 0.4 0.3 2.9 20.6 5.9 41.2 7.9 61.9q0 0.1-0.1 0.1 0 0 0-0.1z"/><path class="d" d="m1855.5 50.2c-5.3-7.9-7.9-17.7-7-27.3 0.8-9.5 5.1-18.8 11.8-25.6 4.8 8.5 8.4 18.1 8.4 27.9-0.1 9.9-4.1 20-13.2 25z"/><path class="d" d="m1852.6-13.3c-8 5.9-17.9 9.2-27.8 9.1-9.8-0.1-19.7-3.5-27.5-9.6 6.8-7.4 16.8-11.8 26.9-11.9 10 0 20 4.3 28.4 12.4z"/><path class="e" d="m1856.7 49.9c1.5-20.7 2-41.5 2.8-62.3l0.4 0.4q-7.7-0.9-15.3-1.5-7.7-0.6-15.4-0.7c-5.1-0.2-10.3-0.2-15.4-0.1q-7.7 0.2-15.4 0.7 0 0 0-0.1 0 0 0 0 7.7-0.9 15.4-1.3c5.1-0.3 10.3-0.4 15.4-0.3q7.7 0.2 15.4 0.7 7.7 0.7 15.4 1.8c0.2 0 0.4 0.2 0.4 0.4-1 20.8-1.8 41.6-3.6 62.3q0 0.1-0.1 0.1 0 0 0-0.1z"/><path class="f" d="m1879 486.4c-3.2 0-6.6-0.2-9.3-2-3-2.2-4.2-6.7-2.5-10.1 1.6-3.3 5.8-5.2 10.5-4.8-12-0.1-24.1-2-35.5-5.6-3-1-6.1-2.1-8.5-4.3-2.3-2.2-3.8-5.6-2.8-8.6 1.4-4 6-5.6 11.5-6.3-8.7-6-17.9-12.8-21-22.9-1-3.4-1-7.6 1.7-9.9 2.4-2 6-1.7 9.1-1 8.9 1.8 17.4 5.3 27.6 10-1.9-2.6-3.8-5.2-4.5-8.3-0.7-3.1 0.2-6.8 2.8-8.4 2.9-1.8 6.6-0.9 9.6 0.5 13.1 6 22 18.3 30.7 31.4-1.3-2.7-2.6-5.4-3-8.3-0.3-3 0.4-6.2 2.7-8.1 2.4-2.1 6-2.2 9-0.9 2.9 1.2 5.2 3.5 7.3 5.9 16.4 19 20.1 46 34.2 66.8-5.6-1.7-51.9-4.8-69.6-5.1z"/><path class="e" d="m1949.4 491.3c-4.1-4.2-8.3-8.6-12.9-12.5q-1.6-1.5-3.3-2.9l-1.7-1.5-1.8-1.4-7.1-5.5q-2.7-2-5.5-4c-0.9-1.6-1.8-3.1-2.7-4.7-1.4-2.2-3-4.2-4.3-6.5q-2.1-3.3-3.8-6.8c-1.2-2.4-2.2-4.8-3.2-7.3l-0.2 0.1c0.6 2.6 1.4 5.1 2.2 7.6q1.4 3.8 3.2 7.4c1.2 2.4 2.3 4.9 4 7q0 0 0 0c-6.5-4.3-13.1-8.4-19.9-12.2q-3.2-1.8-6.4-3.6c-1.2-2-2.5-3.8-3.8-5.6-1.6-2.4-3.5-4.5-5.2-6.8q-2.5-3.5-4.8-7.2c-1.5-2.4-2.9-4.9-4.2-7.5l-0.2 0.1c0.9 2.7 2.1 5.4 3.3 8q2 4 4.2 7.7c1.5 2.5 3 5.1 4.9 7.2q0.9 1 1.8 1.9-10.5-5.7-21.3-10.9-1-0.4-2-0.9-0.3-0.6-0.6-1.2-0.6-0.9-1.2-1.6c-0.8-1-2-1.7-3-2.6l-3-2.6c-1-0.9-2-1.8-3-2.7l-0.1 0.2c0.6 1.1 1.4 2.2 2.2 3.3q1.2 1.7 2.5 3.2c0.4 0.6 0.8 1.2 1.3 1.7-8.6-3.9-17.2-7.6-26.1-11l-0.1 0.3c11.1 4.5 21.9 9.6 32.5 15q0.6 0.3 1.1 0.6c-2.1-0.4-4.2-0.1-6.3 0.2q-3.2 0.4-6.3 1.6c-2 0.7-3.9 1.7-5.7 3l0.1 0.2c2-0.9 3.9-1.6 6-2q3-0.7 6.1-0.8c2.1-0.1 4.1 0.3 6.1 0.4 1.8 0 3.6 0.2 5.6 0.3q12.5 6.6 24.6 13.8 1.3 0.8 2.6 1.6c-1.7-0.3-3.5-0.4-5.3-0.5-2.8-0.1-5.6 0.5-8.3 1q-4.2 0.8-8.2 1.9c-2.6 0.9-5.2 1.8-7.8 2.9l0.1 0.2c2.7-0.7 5.3-1.4 8-1.8q4.1-0.8 8.1-1.2c2.8-0.3 5.5-0.2 8.2-0.5 2.3-0.2 4.7-0.4 7.1-0.8 8.6 5.4 16.9 11.1 25.2 16.9q0.5 0.3 0.9 0.7-1.4-0.2-2.8-0.2c-2.4-0.1-4.7 0.5-7 0.9q-3.5 0.6-6.8 1.5c-2.3 0.7-4.5 1.4-6.6 2.2l0.1 0.3c2.2-0.5 4.5-0.9 6.7-1.2q3.5-0.6 6.9-0.8c2.2-0.2 4.5-0.1 6.8-0.4 1.6-0.2 3.3-0.4 4.9-0.8 8.6 6.3 16.9 12.9 25.1 19.8z"/><path  d="m1963.4 335.6c-22.8-4.1-44.6-13.6-63.5-27.2-9.4-6.7-18.2-14.5-26-23.2l-2.9-3.3-1.4-1.6q-0.8-0.9-1.4-1.7l-5.3-7-4.8-7.3c-1.6-2.5-3-5.1-4.5-7.6-1-1.8-1.4-1.6-0.4 0.2 1.4 2.6 2.8 5.2 4.3 7.7l4.7 7.5 5.1 7.1q0.7 0.9 1.4 1.8l1.4 1.7 2.8 3.4c7.6 8.9 16.3 17 25.7 24.1 18.8 14.2 40.8 24.5 64.1 29.1 1 0.2 1.9 0.5 2.8 0.6q1.4 0.1 2.5 0.2 2.3 0.2 3.8 0.1c2.1-0.1 3.1-0.4 3.2-0.9 0-0.5-0.9-1.1-2.8-1.8q-1.5-0.5-3.6-0.9-1.1-0.3-2.4-0.5c-0.9-0.1-1.8-0.4-2.8-0.5z"/><path class="g" d="m1862.2 272.7c-11.1-5.8-22.7-11-34.5-15.4-6.2-2.4-13.2-4.5-19.5-2.5-4.4 1.4-8.3 5.7-7.3 10.2 0.7 2.8 3.1 4.8 5.6 6.4 8.3 5.3 18.2 7.6 28 7.7 9.8 0.1 19.5-1.9 27.7-6.4z"/><path class="g" d="m1862.2 272.7c-3.6-12.1-6.4-24.4-8.5-36.8-1.1-6.6-1.9-13.8 1.4-19.7 2.2-4 7.2-7 11.3-5.1 2.7 1.2 4.2 4 5.3 6.7 3.5 9.1 3.9 19.3 2.1 28.9-1.8 9.7-5.7 18.8-11.6 26z"/><path class="g" d="m1862.2 272.7c-9.2-5.8-18.3-10.1-26.5-17.3-8.1-7.2-15.2-15.8-19.3-25.9-1.3-3.2-2.2-6.6-2-10 0.3-3.4 2-6.9 5-8.5 2.8-1.6 6.5-1.4 9.5-0.1 3 1.4 5.5 3.6 7.7 6 14 14.4 22.4 32.4 25.6 55.8z"/><path class="e" d="m1838.7 270c-5.4-0.4-10.8-1-15.5-2.3-0.6-0.1-0.8 0.3-0.2 0.5 4.8 1.8 9.7 3.4 14.9 4.5 5.1 1.2 10.3 1.8 15.5 1.8 3.8-0.1 3.9-2.7 0.8-3.2-4.8-0.7-10.1-0.9-15.5-1.3z"/><path class="e" d="m1843 253.7c-5.1-4.6-10-9.5-13.8-14.4-0.4-0.6-0.8-0.4-0.4 0.2 3.5 5.5 7.4 10.8 11.8 15.7 4.4 5 9.3 9.6 14.5 13.4 3.9 2.8 5.7 0.8 2.7-1.9-4.4-4.2-9.7-8.4-14.8-13z"/><path class="e" d="m1858.9 262.9c-2.2-6.6-8.7-12.7-12.9-18.2-0.3-0.3-0.6-0.1-0.4 0.3 3.5 6.3 6.6 13.1 10.4 19.2 1.4 2.2 3.7 0.9 2.9-1.3z"/><path class="e" d="m1862.2 227.8c-0.2 11.7-0.9 23.8-0.8 35.4 0.1 2.8 1.3 3.9 2.2 3.2-1.1 1.7-2.2 3.5-3.2 5.2-1 1.9 1.2 3.3 2.6 1.9 4.2-4.3 5.6-11.7 7.8-17.1 0.1-0.3-0.2-0.5-0.4-0.2-1.9 3-4.1 6-6.1 9.1q0.2-0.5 0.3-1.2c1.4-11.2-1-25.1-1.9-36.3-0.1-0.7-0.5-0.7-0.5 0z"/><path  d="m1865.5 276.5c-3.8 1-9 3.5-12.9 3.4-2-0.1-4.4-0.7-4.8-2.7-0.3-1.8 1.7-3.3 3.5-3.6 1.9-0.3 3.8 0 5.6-0.5-2.6-2.6-3.6-6.7-2.5-10.2 0.3-1 0.9-2 1.9-2.3 0.9-0.3 1.8 0.1 2.6 0.6 2.5 1.4 4.6 3.3 6.3 5.6 0.3-1.5 0.8-3 1.9-4 1.1-1 3-1.4 4.1-0.5 1.6 1.2 1.1 3.6 0.4 5.4-1.6 4-2.7 5.5-6.1 8.8z"/><path class="h" d="m55.1 489.4c0.7-17.5-2.1-35.2-7.6-51.8-1.4-4.1-3-8.2-5.9-11.3-2.9-3.2-7.5-5.1-11.6-3.9-4.1 1.3-6.9 6.5-4.7 10.2-3-10.2-8.6-19.6-16.1-27.2-3-3-6.7-5.9-11-5.9-6.4 0.1-11 8.4-7.6 13.9-5-8.9-13.8-15.7-23.7-18.1-3.7-0.9-8.5-0.7-10.1 2.7-1.3 2.6 0 5.7 1.4 8.2 4.6 8.6 10.4 16.5 17.2 23.5-3-2.1-6.1-4.3-9.7-4.9-3.5-0.6-7.8 1.1-8.9 4.5-1.4 4.5 2.7 8.6 6.4 11.4 10.4 7.8 21.5 14.8 33.1 20.7-2.8-1-5.7-2.1-8.7-2-3 0.1-6.1 1.6-7.3 4.4-1.9 4.5 2.2 9.2 6.2 12 17.8 12.1 40.6 13.3 68.6 13.6z"/><path class="i" d="m55.9 492.3c-12.2-15.4-26.5-32.5-42-48.5-15.4-16.1-32.1-31.2-47.9-43.3-1.9-1.5-1.8-1.8 0.2-0.3 33.5 24.4 65 54.5 89.9 87.7 9 12.2 7.8 14.6-0.2 4.4z"/><path class="i" d="m21.8 452.7c-13.2-3.3-28.7-10.9-41.4-16.1-0.7-0.3-0.6-0.6 0.2-0.4 13.5 4.5 27.7 8.7 41.1 13.5 4.8 1.8 4.5 4 0.1 3z"/><path class="i" d="m14.6 442.1c-1.6-4.7-3.1-10-4.9-15.3-1.8-5.3-4-10.5-6.6-14.8-0.3-0.5 0-0.7 0.4-0.2 6.2 8.4 11.4 18.4 13.6 28.9 0.8 3.8-1.4 4.5-2.5 1.4z"/><path class="i" d="m42.8 471c-0.9-5.8-1.7-12.3-3.1-18.8-1.3-6.4-3.3-12.9-6-18.3-0.3-0.6 0-0.8 0.4-0.2 6.3 10.8 10.8 23.4 11.4 36.2 0.2 4.6-2.1 4.9-2.7 1.1z"/><path class="i" d="m45 481.9c-7.1 0.4-15.1-0.6-22.9-2.5-7.8-2-15.3-4.9-21.9-7.6-0.8-0.4-0.6-0.7 0.2-0.4 13.9 4.8 29 7.1 43.5 7.7 5.3 0.3 5.7 2.5 1.1 2.8z"/><path class="j" d="m94.1 485.6c15.2 0.9 29.6-5.9 43.3-12.6 5.5-2.7 11.1-5.5 15.2-10 4.2-4.5 6.6-11.1 4.3-16.8-2.5-6.6-10.2-10-12.6-16.6-1.9-4.8-1-11.3-5.3-14.1-3.9-2.6-9.7-0.4-13.3-3.4-3.8-3.3-2.3-10.6-6.7-13.1-3.8-2.1-9 1.3-12.8-0.9-2.2-1.3-3-4-4.9-5.7-3-2.7-8.1-1.9-11 0.8-3 2.8-4.2 7-4.5 11.1-0.3 4 0.2 8.1 0 12.1-0.6 9.2-4.9 17.6-8.5 26.1-3.6 8.4-6.6 17.8-4.5 26.7 2.2 8.9 11.3 15.8 21.3 16.4z"/><path class="j" d="m76.3 475.8c8.8-8.2 14-19.6 17.5-31.1 3.6-11.5 5.7-23.3 9.5-34.7 1.1-3.2 2.3-6.4 2.3-9.7 0-3.4-1.5-6.9-4.5-8.4-6-2.9-12.6 4.1-19.2 3.2-4.2-0.5-7.2-4-10.3-7-3-3-7.3-5.7-11.2-4.2-3.7 1.4-6.3 6.2-10.1 5.4-3.7-0.8-4.9-6.3-8.6-6.9-2.6-0.5-4.8 1.8-6.2 4-1.3 2.3-2.5 4.9-4.8 6.1-2.5 1.2-5.6 0.5-8.1 1.6-2.6 1.3-3.9 4.2-4.7 7-4 13.4-2.8 28.1 2.8 40.9 5.5 12.8 15.3 23.6 27.2 30.9 4.7 2.9 9.8 5.3 15.2 5.9 5.5 0.5 11.2-1.2 13.2-3z"/><path class="k" d="m82.2 484.9c11.3-5.1 22.3-10.9 33-17.4 10.6-6.6 20.8-13.9 30.3-22 0.2-0.1 0.3 0.1 0.2 0.2-8.4 9.3-17.6 18.2-27.8 26-10.1 7.8-21.3 14.4-33.3 19-3.1 1.1-5.3-4.6-2.4-5.8z"/><path class="k" d="m76.7 485.1c19.6-15.7 38.4-32.6 55.4-51.3 0.1-0.1 0.4 0 0.3 0.2-7.3 10.3-15 20.6-23.5 30.2-8.5 9.6-17.9 18.5-28.4 25.9-2.7 1.9-6.3-3-3.8-5z"/><path class="k" d="m72.2 483.3c20.4-18.1 38.8-38.8 53.7-62.1 0.1-0.1 0.4 0 0.3 0.2-6.1 12.4-13 24.6-21.2 36-8.2 11.4-17.8 22-28.8 30.8-2.8 2.2-6.6-2.6-4-4.9z"/><path class="k" d="m65.1 483.6c9.3-10.2 17.9-21.1 25.7-32.5 7.8-11.5 14.7-23.6 20.4-36.3 0.1-0.1 0.4 0 0.3 0.1-4.3 13.3-9.6 26.4-16.4 38.9-6.9 12.4-15.3 24.2-25.5 34.1-2.6 2.6-6.8-1.8-4.5-4.3z"/><path class="k" d="m61.9 481.8c15.3-21.5 28.4-44.8 37.8-69.8 0.1-0.1 0.3 0 0.3 0.1-3.2 13-7.1 25.9-12.4 38.4-5.4 12.5-12.2 24.5-20.7 35.1-2.2 2.7-7-1.1-5-3.8z"/><path class="k" d="m61.1 479.7c-11.5-9.1-20.7-21-26.9-34.3-6.2-13.2-9.4-27.8-9.2-42.2 0-0.1 0.2-0.2 0.3 0 1.4 14.3 6.4 27.9 13.5 40 7 12.1 16.1 22.6 26.3 31.7 2.6 2.3-1.1 7.1-4 4.8z"/><path class="k" d="m66.2 478.7c-8.5-8.3-14.9-18.6-19-29.7-4-11.2-5.6-23.1-4.7-34.7 0-0.1 0.3-0.1 0.3 0 0.7 11.6 4.2 22.8 9.1 32.8 5.1 10.1 11.5 19.1 18.8 27.2 1.8 2.1-2.4 6.5-4.5 4.4z"/><path class="k" d="m66.2 474.7c-5.8-12.6-9.4-26.3-10.8-40.2-1.4-13.9-0.6-27.9 2.2-41.3 0.1-0.2 0.3-0.2 0.3 0-1.2 13.7-0.1 27.4 2.6 40.7 2.6 13.2 6.7 26 11.5 38.4 1.2 3.1-4.3 5.6-5.8 2.4z"/><path class="k" d="m70.5 473.8c-2.3-12-2.3-24.5 0-36.5 2.3-12.1 6.7-23.6 13-33.9 0.1-0.1 0.3 0 0.3 0.2-4.9 11-7.4 22.8-8.3 34.5-0.9 11.7-0.2 23.2 1.2 34.6 0.4 2.9-5.6 4.1-6.2 1.1z"/><path class="k" d="m67.3 472.5c-4-10.9-6.2-22.6-6.5-34.3-0.3-11.7 1.2-23.3 4.4-34.4 0-0.1 0.3-0.1 0.3 0.1-1.6 11.3-1.2 22.9 0.4 34 1.6 11.2 4.3 22 7.4 32.7 0.8 2.6-4.9 4.7-6 1.9z"/><path class="k" d="m61.4 474.1c-9.4-8.9-17.1-19.6-22.8-31.3-5.6-11.6-9.2-24.2-10.6-36.9 0-0.2 0.3-0.2 0.3-0.1 3 12.4 8.3 24.1 14.8 34.7 6.6 10.6 14.4 20.2 22.7 29.1 2.1 2.3-2 6.7-4.4 4.5z"/><path class="k" d="m61.1 469.7c-5.1-8.5-8.8-17.8-11.2-27.5-2.3-9.7-3.2-19.6-2.8-29.4 0-0.1 0.3-0.1 0.3 0 1.2 9.7 4 19.1 7.4 28 3.5 9 7.7 17.5 11.9 25.9 1 2.1-4.3 5.2-5.6 3z"/><path class="k" d="m73.7 469.3c-0.8-5.1-0.8-10.4-0.2-15.5 0.7-5.2 1.9-10.2 3.4-15.1 3.2-9.7 7.7-18.7 12.3-27.5 0.1-0.1 0.3 0 0.3 0.1-3.2 9.4-5.9 19.1-7.7 28.8-1.8 9.7-2.5 19.2-1.8 28.6 0.1 2.3-5.9 3.3-6.3 0.6z"/><path class="k" d="m67.8 465.4c-2.4-10.6-3-21.6-1.8-32.4 1.2-10.8 4.2-21.4 8.5-31.1 0.1-0.1 0.3 0 0.3 0.1-2.9 10.3-3.8 21-3.7 31.4 0.1 10.5 1.3 20.7 2.9 30.8 0.4 2.5-5.6 3.9-6.2 1.2z"/><path class="k" d="m76.1 474.5c16.5-16.4 32.4-33.7 46.8-52.3 0.1-0.1 0.3 0.1 0.2 0.2-5.8 10.2-12 20.4-18.9 30.1-7 9.6-14.8 18.8-23.8 26.6-2.3 2-6.4-2.5-4.3-4.6z"/><path class="k" d="m87.7 477.3c16.4-12.9 33.2-25.3 49.7-38 0.1-0.1 0.3 0.1 0.2 0.2-7.2 7.6-14.3 15.3-21.9 22.7-7.6 7.3-15.6 14.3-24.3 20.2-2.2 1.4-5.8-3.5-3.7-5.1z"/><path class="k" d="m94.9 466.8c9.5-12.3 20.4-23.7 31.6-34.5 0.1-0.1 0.3 0.1 0.3 0.2-8.9 12.9-16.4 27-27.1 38.4-1.3 1.5-6-2.5-4.8-4.1z"/><path class="k" d="m51.3 461.4c-10.4-18.2-16.8-38.9-19.4-59.6-0.1-0.1 0.2-0.2 0.3-0.1 2.9 10.1 6.9 19.7 11.3 29.1 4.3 9.4 9 18.5 13.4 27.7 1.1 2.4-4.2 5.3-5.6 2.9z"/><path class="k" d="m79.2 461.4c8.8-16 18.5-31.7 28.1-47.3 0.1-0.1 0.3 0 0.3 0.1-3.4 8.5-6.6 17.3-10.2 25.9-3.7 8.5-7.7 16.9-12.9 24.6-1.2 1.9-6.4-1.2-5.3-3.3z"/><path  d="m81.4 481.7c16.6-8.6 28.7-25.3 29.9-43.6-2.5-16.8-7.3-20.4-32.5-16.9-14.9 2.1-17.7-5-32.5 10.1 3.7 23.7 13.1 45.4 35.1 50.4z"/><path class="l" d="m31.5 445.4c0.4 6.3 1.9 12.5 4.4 18.3q1.8 4.1 4.3 7.9c3.2 4.9 7.2 9.4 11.9 13.1 5.8 4.5 12.5 7.8 19.7 8.7q2.4 0.3 4.9 0.3c3.6 0 7.1-0.6 10.4-1.7 4.8-1.4 9.4-3.7 13.8-6.5 4.9-3 9.5-6.5 14-10q11.3-8.8 22.6-17.6c1.5-1.1 2.6-2.7 3.1-4.5 1.3-5-3.3-7.8-7.2-9.6-7.1-3.4-14.8-6.9-22.4-7.4-3-0.2-5.9 0.1-8.8 1-2.4 0.7-4.7 1.8-7 2.8-4.1 1.8-8.1 3.4-12.3 2.4-1.7-0.5-3.2-1.3-4.6-2.4-4.3-3.3-7.4-8.7-12.4-10.8-5.8-2.5-12.4-0.3-18.8 1.1-1.3 0.3-2.7 0.5-4 0.7-7 0.8-12.1 7.1-11.6 14.2z"/><path class="j" d="m49.2 459.2c-0.7 4.7-0.7 9.6 0 14.5q0.5 3.5 1.5 6.9 0.6 2.1 1.4 4.1c5.8 4.5 12.5 7.8 19.7 8.7q2.4 0.3 4.9 0.3c3.6 0 7.1-0.6 10.4-1.7q3.1-3.1 5.9-6.5 1.3-1.6 2.5-3.2c5.5-7.3 9.9-15.4 13.8-23.4 0-0.1-0.2-0.3-0.3-0.2-5.2 7.2-11 14-17.3 20.2q-2.5 2.6-5.1 5-0.5 0.5-1.1 1 0.2-0.4 0.4-0.7 0.2-0.2 0.3-0.5 2-3.4 3.7-6.9 0 0 0-0.1 0.2-0.3 0.4-0.7c4.1-7.7 7.3-15.8 10.1-23.8 0-0.1-0.2-0.2-0.3-0.1-5.7 10.1-12.4 19.5-19.5 28.4q-0.4 0.4-0.7 0.8-1.1 1.4-2.3 2.8 0.5-1.6 1-3.2 0.2-0.3 0.3-0.7 0.1-0.5 0.2-0.9c0.9-3.1 1.7-6.2 2.5-9.4 0.9-3.8 1.7-7.7 2.6-11.5 0-0.1-0.2-0.2-0.3-0.1-2.7 5.7-5.5 11.4-8.3 17.1q-0.3 0.6-0.7 1.3-0.6 1.2-1.1 2.4-1.5 2.9-2.9 5.8 0.2-3.4 0.4-6.8 0-0.2 0-0.3 0-0.1 0-0.2c0.3-3.8 0.6-7.7 1-11.6q0 0 0 0c0.4-3.6 0.9-7.2 1.6-10.8 0-0.1-0.3-0.2-0.3-0.1q-0.5 1.2-1 2.4c-2.3 5.6-4.2 11.4-5.7 17.3q-0.6 2-1 4-0.7 3-1.2 6-0.9-3-1.7-6.1-0.4-1.3-0.7-2.6-1-3.7-1.7-7.5c-0.9-4.8-1.5-9.7-1.6-14.7 0-0.1-0.3-0.1-0.3 0q-1 5-1.4 10c-0.3 4.3-0.3 8.5 0 12.7q0 0.5 0 0.9 0.3 3.1 0.8 6.1-1.4-2.2-2.6-4.7-0.7-1.3-1.3-2.6c-2.5-5.3-4.2-11.1-4.7-17.1 0-0.1-0.3-0.1-0.3 0z"/><path class="m" d="m99.3 435.1c7.8-10.4 12.8-23.1 13.7-36.3 0.1-0.5 0.3-0.5 0.3 0.1-0.3 13.2-4.5 26.4-12.3 37.4-2.7 3.8-4.4 2.2-1.7-1.2z"/><path class="m" d="m87 427.3c4.8-11.1 7-23.4 6.1-35.6-0.1-0.5 0.2-0.6 0.2 0 1.5 12.1 0.1 24.8-4.3 36.4-1.6 4-3.6 3-2-0.8z"/><path class="m" d="m71.8 422.8c3.1-11 3.3-22.9 0.1-34.1-0.2-0.5 0.1-0.6 0.2-0.1 3.8 11 4.6 23.3 1.8 34.8-1 3.9-3.2 3.2-2.1-0.6z"/><path class="m" d="m62 421.2c-1.4-9.6-4.1-19.1-8.2-27.9-0.2-0.4 0-0.5 0.2-0.1 4.7 8.6 8.2 17.9 10.1 27.6 0.6 3.4-1.7 3.6-2.1 0.4z"/><path class="m" d="m115.3 395.8c3 2.3-0.5 6.9-3.5 4.7-3.1-2.3 0.5-7 3.5-4.7z"/><path class="m" d="m95.4 388.3c3 2.3-0.5 7-3.5 4.7-3-2.3 0.5-6.9 3.5-4.7z"/><path class="m" d="m74 387.4c3.1 2.3-0.5 6.9-3.5 4.6-3-2.2 0.5-6.9 3.5-4.6z"/><path class="m" d="m55.8 390.3c3 2.3-0.5 7-3.5 4.7-3-2.3 0.5-7 3.5-4.7z"/><path  d="m90.5 202.1c-6 8.8-12.4 17.3-19.3 25.4q-10.3 12.2-22 23.2c-7.7 7.3-15.8 14.3-24.5 20.5l-6.6 4.6c-2.2 1.4-4.4 2.9-6.7 4.3l-6.9 4.1c-2.3 1.2-4.7 2.5-7 3.7l-0.1-0.2c2.2-1.5 4.4-2.9 6.6-4.4l6.5-4.5c2.2-1.6 4.4-3.1 6.5-4.6l6.4-4.8c8.4-6.4 16.7-12.9 24.6-20q11.8-10.7 22.4-22.6c7.1-7.9 13.7-16.2 19.9-24.8z"/><path class="g" d="m57.8 241.4c19.9-17 49.7-21.5 73.7-11.1-9.2 9.4-21.6 15.7-34.6 17.6-13 1.9-26.7-0.5-39.1-6.5z"/><path  d="m57.6 240.8c6.2 0.3 12.5 0.4 18.7 0.1l4.7-0.2 4.6-0.3 4.7-0.4 4.6-0.6c12.4-1.7 24.6-4.8 36.3-9.2-11.6 4.7-23.8 7.9-36.2 9.8l-4.6 0.6-4.7 0.5-4.7 0.4-4.7 0.2c-6.2 0.1-12.5-0.1-18.7-0.9z"/><path  d="m76.3 241.6c1-1.2 2.1-2.3 3.3-3.4 1.1-1.1 2.3-2.1 3.5-3.1q3.6-3.1 7.2-6.1-3.4 3.3-6.8 6.5c-1.1 1.1-2.2 2.2-3.4 3.2-1.2 1-2.5 2-3.8 2.9z"/><path  d="m91.3 240.6c1-1.1 2.2-2.1 3.3-3.1 1.2-0.9 2.4-1.8 3.6-2.7q3.7-2.7 7.3-5.3h0.1q-3.5 2.9-7 5.8c-1.1 0.9-2.3 1.9-3.5 2.8-1.2 0.9-2.5 1.8-3.8 2.5z"/><path  d="m106 238c1-1 2.1-1.8 3.1-2.6 1.1-0.8 2.3-1.5 3.4-2.3q3.3-2.2 6.7-4.3h0.1q-3.2 2.5-6.5 4.8c-1.1 0.8-2.1 1.7-3.2 2.4-1.2 0.7-2.3 1.4-3.5 2z"/><path  d="m96.3 239.4c1 0.3 1.9 0.6 2.8 0.9 1 0.4 1.8 0.8 2.8 1.1q2.8 1 5.7 1.5v0.1q-3-0.2-5.9-1c-1-0.3-1.9-0.5-2.9-1-0.9-0.4-1.7-0.9-2.5-1.6z"/><path  d="m112.3 236.3c0.7-0.1 1.5-0.1 2.2-0.1 0.7 0 1.4 0.1 2.1 0.2q2.2 0.3 4.3 0.7-2.2 0-4.3-0.1c-0.7 0-1.5 0-2.2-0.1-0.7-0.1-1.4-0.2-2.1-0.5z"/><path  d="m80.9 241.2c0.9 0.5 1.7 1 2.6 1.6 0.9 0.5 1.7 1 2.6 1.5q2.6 1.5 5.6 2.3c-2-0.3-4-0.9-5.9-1.7-0.9-0.5-1.9-0.9-2.7-1.5-0.8-0.7-1.6-1.4-2.2-2.2z"/><path class="g" d="m41.9 256.4c8.9-8.1 13-21.1 10.9-34.4-2.2-13.4-10.5-26.9-22.1-35.7-6.6 9.6-9.2 22.3-7.2 35.2 1.9 12.9 8.4 26 18.4 34.9z"/><path  d="m31.4 186.6c2.2 5.5 3.9 11.1 5.4 16.8 1.5 5.7 2.6 11.5 3.5 17.3 1.7 11.7 2.4 23.5 1.8 35.2h-0.1c0.4-11.7-0.4-23.5-2.3-35.1-1-5.8-2.2-11.5-3.6-17.2-1.4-5.7-3-11.4-4.7-17z"/><path  d="m28.1 202.4c0.9 0.8 1.7 1.6 2.5 2.3 0.8 0.8 1.5 1.6 2.4 2.3q2.5 2.3 5.5 3.9l-0.1 0.1c-2-0.9-4-2.1-5.8-3.5-0.9-0.7-1.8-1.4-2.6-2.3-0.7-0.8-1.4-1.7-1.9-2.7z"/><path  d="m38.7 214.7l1.5-2.6c0.5-0.8 1-1.6 1.5-2.5 0.8-1.7 1.5-3.6 1.8-5.6h0.1c-0.1 2-0.6 4-1.4 5.9-0.4 0.9-0.8 1.8-1.4 2.6-0.6 0.9-1.3 1.6-2.1 2.2z"/><path  d="m28.7 216.3q1.4 1.3 2.8 2.5c0.9 0.8 2 1.6 3 2.3 2 1.5 4.1 2.9 6.3 4.1h-0.3c2.3-2.4 4.4-5.1 6-8.1-1.4 3.1-3.3 5.9-5.6 8.5l-0.1 0.1-0.2-0.1c-2.3-1.1-4.5-2.3-6.6-3.8-1-0.8-2-1.7-2.9-2.6q-1.4-1.3-2.5-2.9z"/><path  d="m29.9 230.2c1 0.7 1.9 1.4 2.9 2.2 0.9 0.7 1.8 1.5 2.8 2.2q2.9 2.1 6.1 3.8-3.4-1.3-6.5-3.3c-1-0.7-2-1.3-2.9-2.2-0.9-0.8-1.7-1.7-2.4-2.7z"/><path  d="m42.1 243.3c0.5-1.1 1-2.2 1.5-3.2 0.6-1.1 1.2-2.1 1.8-3.1q1.7-3.1 3.1-6.3h0.1q-1.2 3.4-2.7 6.6c-0.5 1.1-1 2.1-1.6 3.1-0.6 1-1.3 2-2.1 2.9z"/><path class="n" d="m105.1 213.2c-15.1 4.7-30.4-7.1-29.9-23 0.4-13.5 3.4-27 8.8-39.4 1.7-3.9 3.7-7.8 7.1-10.3 3.3-2.6 8.2-3.5 11.7-1.1 5.5 3.9 3.7 12.4 1.2 18.7 2.7-5.8 6.6-11.4 12.4-14.3 5.8-2.8 13.6-2 17.5 3.2 2.9 3.8 2.9 9.3 1.3 13.9-1.6 4.5-4.7 8.4-7.7 12.2 3.7-2.4 7.5-4.9 11.9-5.7 4.3-0.7 9.4 0.8 11.4 4.7 1.7 3.2 1 7.2-0.8 10.2-1.8 3.1-4.6 5.4-7.4 7.7-9.1 7.4-18.6 14.7-29.1 19.8-2.7 1.3-5.5 2.5-8.4 3.4z"/><path class="o" d="m116.1 201.2q1-1 2-2c0.7-0.6 1.3-1.3 1.9-1.9q1-1 1.9-2c1.2-1.3 2.5-2.6 3.3-4.2 0.3-0.8-0.3-1.1-0.7-0.4-1 1.4-2.4 2.3-3.8 3.4q-1 0.7-2.1 1.5c-0.7 0.5-1.4 1-2.2 1.4l-2.2 1.4c-0.7 0.5-1.3 1-2 1.4q0.3-0.3 0.6-0.7 1-1.1 1.9-2.2c0.3-0.3-0.2-0.9-0.6-0.6-1.6 1-3.2 2.1-4.9 3-1.7 0.9-3.4 1.6-5.2 2.3q-0.6 0.2-1.2 0.4 0.2-0.2 0.3-0.4 1-1.1 1.9-2.4c1.2-1.7 2.2-3.6 3.1-5.3 0.4-1 0.8-1.8 1.3-2.7 0.4-0.8 0.8-1.7 1.2-2.6 0.1-0.4-0.5-0.7-0.8-0.4-1 1.5-2.5 2.6-3.9 3.9q-2.1 1.9-4.3 3.5-0.4 0.3-0.8 0.6c0.8-1.3 1.4-2.7 2-4q0.7-1.4 1.3-2.7c0.2-0.4 0.4-0.8 0.6-1.3 0.2-0.4 0.4-0.8 0.6-1.2 0.1-0.3-0.4-0.8-0.7-0.5-0.4 0.4-0.6 0.8-0.9 1.1-0.3 0.3-0.7 0.7-1 1q-1 1-2 1.9-1.5 1.4-3 2.7 0.6-1.3 1.1-2.6c0.8-2.4 1.5-4.8 2.1-7.1 0.4-1.2 0.6-2.3 1-3.4 0.3-1.1 0.7-2.1 1-3.2 0.2-0.5-0.5-0.8-0.7-0.3-0.6 0.9-1.2 1.9-1.8 2.8q-1 1.4-1.9 2.9-1.9 2.8-3.9 5.6c-1.2 1.8-2.6 3.5-3.9 5.3q0.3-0.8 0.6-1.5 0.9-2.4 1.8-5c0.6-1.7 1.2-3.4 1.8-5.2q0.9-2.5 1.9-5c0.3-0.8 0.7-1.6 1.1-2.5q0.6-1.2 1.1-2.5 0.6-1.2 1.1-2.4c0.4-0.8 0.9-1.6 1.3-2.3 0.4-0.8 0.8-1.5 1.3-2.1 0.5-0.7 1-1.4 1.6-1.8 0.2-0.2 0.3-0.5 0.2-0.7-0.1-0.1-0.3-0.2-0.7 0-0.8 0.5-1.4 1.1-2 1.7-0.7 0.6-1.3 1.3-1.9 2q-0.8 1-1.6 2-0.8 1.1-1.6 2.2l-1.6 2.1c-0.5 0.7-1 1.4-1.5 2.2q-1.6 2.2-2.9 4.6c-1.8 3.1-3.4 6.2-4.9 9.5-0.6 1.4-1.2 2.8-1.7 4.3q-0.1-0.2-0.1-0.4-0.1-0.6-0.3-1.3l-0.4-1.2c-0.5-1.6-1.1-3.1-1.7-4.7q-0.2-0.5-0.4-1.1-0.2-0.5-0.4-1.1-0.3-1.1-0.5-2.2c-0.1-0.4-0.8-0.4-0.8 0q-0.2 1.2-0.4 2.3c-0.1 0.8-0.1 1.6-0.2 2.4q-0.2 2.4-0.5 4.8c-0.1 0.9-0.1 1.6-0.2 2.3-0.5 7.1 4.1 13.5 10.1 16.7 8.8 4.7 19.4 0.4 26-6.1 0.7-0.8 1.3-1.5 1.8-2z"/><path class="g" d="m213 55.2c5.8 2.9 12.3 4.6 18.8 5 3.4 0.2 7.1-0.1 10-1.8 2.9-1.8 4.9-5.5 3.8-8.8-1.3-3.6-5.7-5-9.6-5.1-7.9-0.2-15.9 3.3-23 10.7z"/><path class="g" d="m213.5 55.9c4.8 5.5 7.5 12.7 7.4 20 0 2.5-0.4 5.1-1.8 7.2-1.6 2.2-4.4 3.6-7.1 3.4-2.8-0.2-5.4-2.1-6.3-4.7-0.8-2.1-0.6-4.4-0.2-6.6 1.2-6.5 3.8-12.8 8-19.3z"/><path class="g" d="m198.4 42.5c11.1-1 22.5-2.1 32.6-6.8 1.8-0.9 3.8-2.2 4.2-4.2 0.4-1.9-0.8-3.9-2.5-5-2-1.3-4.5-1.6-6.8-1.3-2.4 0.3-4.6 1.2-6.8 2.1-7.3 3.4-14 8-20.7 15.2z"/><path class="g" d="m198.5 41.7c2.6 5.7 4.4 11.7 4.8 17.9 0.4 6.2-0.6 12.5-3.4 18-1.2 2.5-3.1 4.9-5.8 5.2-1.9 0.2-3.8-0.8-5-2.3-1.2-1.5-1.7-3.4-2-5.2-0.6-5.1 1.2-10.1 2.9-14.9 2.1-6 4.2-12.1 8.5-18.7z"/><path class="g" d="m183.4 30.9c10.8-1.7 21.7-5.1 30.1-12 1.4-1.2 2.8-2.5 3.7-4.2 0.8-1.7 1-3.7 0.1-5.4-0.9-1.6-2.7-2.5-4.6-2.7-1.9-0.1-3.7 0.4-5.5 1-10 3.8-17.4 12.2-23.8 23.3z"/><path class="g" d="m183.5 30.7c2.5 4.7 3.5 10.1 3.1 15.3-0.3 5.3-1.9 10.5-4.2 15.2-0.9 1.8-1.9 3.6-3.5 4.8-1.6 1.2-3.9 1.7-5.6 0.7-1.2-0.7-2-2-2.4-3.4-0.8-2.5-0.7-5.3-0.2-7.9 0.6-2.6 1.6-5.1 2.6-7.6 2.5-6 5.2-12.3 10.2-17.1z"/><path class="g" d="m173.2 23.7c5.5-2.3 11-4.9 15.8-8.6 4.7-3.7 8.8-8.6 10.6-14.3 0.5-1.6 0.9-3.3 0.2-4.8-0.9-2-3.6-2.8-5.8-2.3-2.1 0.5-3.9 2.1-5.5 3.7-6.4 6.6-10.6 15-15.3 26.3z"/><path class="g" d="m173.1 23.7c1.8 10-1.4 20.9-8.4 28.3-1.6 1.6-3.7 3.2-5.9 2.6-1.8-0.5-2.9-2.5-3-4.4 0-1.9 0.7-3.7 1.5-5.4 3.5-8.1 7.9-16.1 15.8-21.1z"/><path class="g" d="m158.3 14.1c6.4-2.6 11-8.4 15.3-13.9 2.8-3.6 5.7-7.4 6.6-11.9 0.5-2.6 0-5.8-2.2-7.2-1.5-0.9-3.5-0.8-5.1-0.1-1.6 0.7-3 1.9-4.2 3.1-6.8 7.1-11.3 16.5-10.4 30z"/><path class="g" d="m158 14.3c1.3 11.8-1.7 24.1-8.3 34-1.6 2.5-3.9 5-6.8 4.9-3.3-0.2-5.4-3.7-5.9-6.9-1-6.5 2.2-13.1 6.4-18.2 4.2-5.1 9.4-9.4 14.6-13.8z"/><path class="g" d="m141.2 4.6c5.2-3.4 10.3-7 14.5-11.6 4.3-4.5 7.6-10 9-16.1 0.8-3.8 0.3-8.7-3.2-10.5-3.4-1.8-7.6 0.6-10.4 3.2-8.7 8.2-13.4 20.3-9.9 35z"/><path class="g" d="m141.3 4.7c-1.2 11.3-2.9 22.9-8.6 32.8-1 1.6-2.1 3.3-3.6 4.5-1.5 1.1-3.6 1.8-5.5 1.3-1.6-0.5-2.8-1.8-3.6-3.2-0.7-1.5-1-3.2-1-4.9-0.2-6.2 2.5-12.2 6.4-17.2 3.8-4.9 8.7-8.9 15.9-13.3z"/><path class="g" d="m120.4-5c11.6-7.1 19.7-19.6 21.6-33.1 0.5-3.3 0.2-7.4-2.8-8.9-2.1-1.1-4.7-0.3-6.7 0.8-6.3 3.5-10.2 10.2-11.9 17.1-1.8 6.9-1.6 14.2-0.2 24.1z"/><path class="g" d="m119.9-5.5c2.7 10.4 1.8 21.7-2.5 31.5-1.9 4.3-5.3 8.9-10 9-3.8 0.1-7.2-2.8-8.5-6.4-1.3-3.6-0.8-7.5 0.2-11.2 2.7-9.6 9.6-18 20.8-22.9z"/><path  d="m65.6-21.2c34.9 8.1 68.3 22.7 98.6 41.8 13.1 8.3 26.2 18.4 38.7 28.8 12.5 10.5 24.4 21.2 36.1 30.4 0.4 0.3 0.4-0.1 0.1-0.4-23.5-25.7-50.3-48-80.1-66.3-16-9.8-32.8-18.4-50.3-25.5-4.5-1.8-9.1-3.6-13.7-5.2l-6.9-2.4c-2.4-0.7-4.7-1.4-7.1-2.1-5.7-1.9-11.4-3.5-16.9-3.6-4.4 0-3.2 3.3 1.5 4.5z"/><path class="g" d="m227.5 69c9.4 2 17.7 8.5 22 17.1 0.9 1.9 1.7 3.9 1.7 6 0 2.1-0.8 4.3-2.6 5.5-2 1.5-5 1.2-7.2-0.1-2.2-1.3-3.8-3.4-5.2-5.6-4.1-6.2-7.2-13.2-8.7-22.9z"/><path class="j" d="m1381 21.7c2.1-0.1 3.8-1.9 3.9-4.3 0.5-6.7 1.4-13.3 1.7-20 0.5-7.9 0.2-16-2.3-23.4-2.5-7.3-7.4-14-14.1-16.6-6.6-2.6-14.9-0.5-18.9 6.1-4.7 7.7-2.2 18.3 1.6 26.7 3.5 8 8.1 15.6 13.4 22.3 2.2 2.8 4.6 5.6 7.6 7.4 2.1 1.2 4.4 1.9 7.1 1.8z"/><path class="j" d="m1374.7 18.6c-10.5-14.5-25.5-24.9-41.8-29.1-6.5-1.7-14.1-2.2-19.2 2.6-4.8 4.4-6.1 12.3-4.1 18.8 2 6.5 6.9 11.5 12.4 14.5 5.5 3 11.7 4.3 17.8 5 8.8 1.1 17.6 1.3 26.4 0.6 2.6-0.2 5.4-0.6 7.4-2.5 2-2 3.6-6.6 1.1-9.9z"/><path class="j" d="m1375.6 28.7c-9.8-1-19.9-1.1-29.2 2.5-9.3 3.6-17.7 11.5-20.2 22.1-1.5 6.3-0.4 13.7 4.1 17.8 3.2 2.9 7.7 3.6 11.7 2.7 4.1-0.8 7.8-3 11.2-5.5 8-5.6 15.1-12.6 21.1-20.6 1.6-2.2 3.2-4.5 3.9-7.2 0.7-2.7 0.4-5.9-2.6-11.8z"/><path class="j" d="m1383.8 30.1c-2.6-1.4-5.7-0.1-6.9 2.9-4.4 11.6-6.9 24.2-7.2 36.8-0.2 5.7 0.2 11.7 3 16.4 3.2 5.4 9.3 8.4 15 7.4 5.8-0.9 10.8-5.6 12.9-11.7 2.2-6.2 1.3-13.2-0.3-19.7-1.8-8-4.7-15.6-8.4-22.8-1.9-3.6-4.5-7.3-8.1-9.3z"/><path class="j" d="m1381.9 17.8c5.8-15.9 11.9-32.3 23.3-43.8 5-4.9 12.2-8.9 18.2-5.7 4.3 2.4 6.6 7.8 7 13 0.7 10.5-5 20.5-12.6 26.7-7.5 6.2-16.7 9.4-25.7 12.5-2 0.7-4 1.4-6 1.2-2.1-0.3-5-1.8-4.2-3.9z"/><path class="j" d="m1380.5 20.9c-1.5 3.2-0.6 7.2 1.3 10.1 2 3 4.9 5.2 7.8 7.2 8.1 5.7 16.8 10.8 26.5 12.9 4.7 1.1 9.9 1.3 14.2-1.1 4.3-2.4 6.9-7 8.6-11.7 1.8-4.9 2.7-10.8-0.3-15.1-2.6-3.8-7.3-5.2-11.8-6-11.8-2.3-44.8 0.5-46.3 3.7z"/><path class="k" d="m1375.9 37.7c5.2 12 8.9 25 9.9 38.4 0 0.6 0.8 0.6 0.9 0 0.8-13.5-0.4-27.4-4.5-40.7-1.5-4.6-8.1-1.7-6.3 2.3z"/><path class="k" d="m1378.4 36.2c6.8 9.1 12.1 20 14.2 31.8 0.1 0.5 0.9 0.4 0.8-0.1-0.2-12-3.1-24.5-9.4-35.4-2.2-3.7-8 0.7-5.6 3.7z"/><path class="k" d="m1374.6 38.7c0.7 11.2 2 22.5 2.9 33.7 0.1 0.5 0.8 0.5 0.9 0 0.9-11.2 2.2-22.5 2.9-33.7 0.3-3.8-7-3.8-6.7 0z"/><path class="k" d="m1372.2 31.9c-10.9 4.5-19.4 13.3-24.3 23.2-0.2 0.4 0.5 0.8 0.7 0.4 6.4-8.8 16-14.7 25.8-17.2 3.2-0.8 1.6-7.9-2.2-6.4z"/><path class="k" d="m1375.7 30.7c-4.9 7.1-9.3 14.5-14.1 21.6-0.2 0.3 0.4 0.8 0.7 0.6 6.1-6 12.5-11.8 18.5-17.9 2.1-2.1-3.5-6.7-5.1-4.3z"/><path class="k" d="m1371.7 28.8c-13 4.6-24.7 12-34.9 20.6-0.5 0.4 0 1 0.5 0.7 11.2-7.1 23.7-11.9 36.3-14.9 4.3-0.9 2.6-8-1.9-6.4z"/><path class="k" d="m1372.3 27.9c-5.1-0.3-10.1 1-14.4 3.3-4.3 2.2-8 5.5-10.5 9.3-0.3 0.4 0.3 0.8 0.6 0.6 3.2-3.2 7.2-5.2 11.3-6.3 4.1-1 8.4-1.1 12.2-0.2 2.5 0.6 4.5-6.4 0.8-6.7z"/><path class="k" d="m1372.6 25.4c-14.2-5-29.4-6.3-43.9-4.8-0.6 0.1-0.6 0.8 0.1 0.9 14.5 0.3 28.6 4.1 41.3 10.1 4.3 2.1 7.4-4.4 2.5-6.2z"/><path class="k" d="m1377 24.5c-9.1-5.4-19.1-9.1-29.1-11.9-0.5-0.2-0.8 0.6-0.3 0.8 9.3 4.5 17.8 10.4 25.7 16.6 2.6 2.2 6.9-3.6 3.7-5.5z"/><path class="k" d="m1379 22.9c-9.9-7.2-20.8-12.9-31.7-17.8-0.5-0.2-0.9 0.5-0.4 0.8 10.1 6.5 19.2 14.2 27.9 22.2 2.9 2.8 7.6-2.7 4.2-5.2z"/><path class="k" d="m1379.2 23.7c-6-13.1-11.5-26.5-15.7-40.4-0.2-0.7-0.9-0.5-0.8 0.1 2.4 14.4 5.5 28.8 10.3 42.8 1.6 4.7 8.3 1.9 6.2-2.5z"/><path class="k" d="m1383.3 25.9c-3.8-13.4-8.2-26.6-12.1-40-0.2-0.6-1-0.4-0.9 0.2 2.3 13.8 4.1 27.6 6.5 41.3 0.8 4.7 7.9 3.1 6.5-1.5z"/><path class="k" d="m1385.9 26.3c-0.4-12.9-3.3-25.5-7.5-37.3-0.2-0.5-0.9-0.3-0.8 0.2 2.5 12.3 2.7 24.8 1.6 37-0.4 4.1 6.8 4.6 6.7 0.1z"/><path class="k" d="m1387.2 24c6.7-11.6 13-23.6 19.6-35.3 0.3-0.5-0.4-0.9-0.7-0.5-8.1 10.8-16.6 21.3-24.6 32.1-2.7 3.7 3.3 7.7 5.7 3.7z"/><path class="k" d="m1385.8 29.9c8.2-10 16-20.3 24-30.4 0.4-0.5-0.2-1-0.6-0.6-9.4 8.9-19.1 17.5-28.3 26.5-3.2 3 2.1 7.9 4.9 4.5z"/><path class="k" d="m1383.7 30.5c10-7.5 19.2-16 28-24.6 0.4-0.4-0.1-1-0.6-0.7-9.9 7.3-20.5 13.6-31.1 19.7-3.6 2 0.2 8.1 3.7 5.6z"/><path class="k" d="m1383.9 31.1c12.4-4.3 25.9-6.3 39.4-4.9 0.5 0.1 0.7-0.7 0.1-0.9-13.2-3.2-27.5-3.8-41.3-0.7-4.8 1.2-2.3 8 1.8 6.5z"/><path class="k" d="m1383.8 37.2c11.1-1.9 22.8-2.6 34.4-0.9 0.5 0 0.7-0.7 0.2-0.9-11.3-3.4-23.2-5.4-35.3-4.9-4.2 0.2-3.1 7.3 0.7 6.7z"/><path class="k" d="m1383 33.4c9.2-2.6 19-4.4 29-4.3 0.4 0.1 0.5-0.7 0.1-0.8-9.8-2-20.2-2.8-30.4-1.4-3.6 0.5-1.8 7.5 1.3 6.5z"/><path class="k" d="m1380 38.5c9.8-0.6 20.2 0.3 29.9 3.9 0.5 0.2 0.8-0.5 0.4-0.8-9-5.2-19.4-9-30.3-9.8-3.8-0.2-3.4 7 0 6.7z"/><path  d="m1376.5 15.7c-1.2-3.2-1.6-6.7-1.1-10 0.1-1 0.6-2.3 1.5-2.3 0.9 0 1.4 1.2 1.7 2.1q1.1 4.6 1.5 9.3c0.3-3.1 1.5-6.2 3.5-8.4 0.7-0.9 1.9-1.6 2.8-1 0.8 0.5 0.8 1.8 0.7 2.8-0.4 2.9-1.2 5.7-2.4 8.2 1.7-2 3.9-3.6 6.3-4.5 0.8-0.3 1.8-0.5 2.4 0.1 0.8 0.9 0.3 2.4-0.4 3.4-1.5 2.1-3.7 3.6-6.1 4.1 2.3-0.1 4.7 0.3 7 1.2 0.6 0.2 1.4 0.6 1.7 1.3 1.5 3.1-2.2 4.3-8.5 2.7 2.1 1.8 3.8 4.2 5 6.9 0.4 0.9 0.8 2.1 0.4 3-0.7 1.4-2.5 1.3-3.8 0.7-2.3-1.2-4.3-3.4-5.3-6q1.8 3.9 3 8.2c0.3 1.1 0.5 2.3 0 3.3-0.6 0.8-1.8 1.1-2.7 0.7-0.9-0.4-1.6-1.3-2.2-2.1-1.6-2.6-2.6-5.7-2.6-8.9-0.3 1.7 0 3.4 0 5.2 0.1 1.7-0.5 3.7-1.9 4.4-1.8 0.9-4-1-4.4-3.2-0.4-2.2 0.4-4.5 1.2-6.6-1.5 1.7-4.4 3.8-5.5 4.1-1 0.3-2.4-0.1-2.8-1.3-0.2-0.8 0.1-1.8 0.4-2.6 1.2-2.5 3.4-4.4 5.9-5.2-2.3 0.8-5.5 0.6-7.2-0.4-1.1-0.6-1.8-2.2-1.2-3.4 0.4-0.8 1.2-1.1 2-1.3 2.2-0.5 4.4-0.5 6.5 0.1-2.2-1.4-4.4-2.8-5.9-5.1-0.7-1-1.2-2.4-0.7-3.6 0.5-1.4 2.2-1.7 3.5-1.2 2.4 1.1 3.7 3.2 5.7 6.3q-2.2-3.3-3.9-7c-0.3-0.7-0.6-1.3-0.6-2.1 0-0.7 0.4-1.5 1-1.6 0.9-0.2 1.6 0.6 2.1 1.4 1.2 2.1 2.2 4.4 3.4 8.3z"/><path class="p" d="m1379.8 16.5c-0.7-0.6-1.7-0.7-2.5-0.3-0.8 0.4-1.4 1.3-1.4 2.3-1.3 0.2-2.4 1.2-2.8 2.5-0.4 1.4-0.1 3 0.9 4-0.5 1.4 0 3.1 1.1 3.9 1.1 0.9 2.7 0.8 3.7-0.1 0.9 1 2.4 1.2 3.5 0.6 1.1-0.5 1.9-1.9 1.8-3.3 1.2-0.6 2-2 2.1-3.5 0-1.4-0.7-2.9-1.8-3.6 0-0.9-0.6-1.8-1.3-2.2-0.8-0.5-1.7-0.4-3.3-0.3z"/><path class="q" d="m699.3 465c-11.3-9.6-17.7-24.7-16.6-39.5 0.2-2.3 0.6-4.8 1.8-6.8 1.3-2 3.6-3.6 5.9-3.3 3.3 0.4 5.2 3.9 6.3 7 4.8 13.5 4 28.3 2.6 42.6z"/><path class="q" d="m698.4 465.1c-8.1-10.4-17.1-21.3-29.7-25.2-2.6-0.8-5.3-1.3-8-0.9-2.7 0.4-5.3 1.9-6.7 4.2-2.3 3.7-0.8 8.8 2.3 11.9 4.1 4.2 10.3 5.3 16 6.3 8.7 1.4 17.5 2.8 26.1 3.7z"/><path class="q" d="m698.8 465.7c-5.7-1-11.5-1.9-17.3-1.8-5.8 0.1-11.7 1.3-16.6 4.5-4.9 3.1-8.6 8.4-9 14.2-0.3 4.1 1.5 8.7 5.4 10 2.8 1 5.8 0 8.4-1.3 12-6.1 19-19.1 29.1-25.6z"/><path class="q" d="m698.3 465.2c-11.7 8.5-18 24-15.6 38.3 0.4 2.2 0.9 4.3 2.2 6.2 1.2 1.8 3.2 3.2 5.4 3.3 2.9 0 5.4-2.2 6.6-4.8 1.1-2.6 1.2-5.6 1.3-8.5 0.2-11.3 0.2-22.6 0.1-34.5z"/><path class="q" d="m699 465.2c-1.5 11.6 2.3 23.7 9.9 32.5 1.9 2.1 4 4.1 6.6 5.3 2.5 1.1 5.6 1.4 8.2 0.1 3.9-2 5.3-7.1 4.3-11.4-1.1-4.2-4-7.7-7.2-10.8-6.5-6.4-14.1-11.6-21.8-15.7z"/><path class="q" d="m698.8 466.2c-0.2-14.6 2.7-30.1 12.8-40.6 2.5-2.5 5.8-4.9 9.3-4.4 4.6 0.6 7.5 6.1 6.7 10.7-0.8 4.6-4.1 8.5-7.5 11.6-7.8 7.2-17.5 13.2-21.3 22.7z"/><path class="q" d="m698.2 466.1c5.9-11.7 16.5-20.8 28.9-24.8 2.6-0.8 5.5-1.4 8.1-0.5 4.7 1.6 6.5 7.9 4.5 12.5-2 4.5-6.8 7.3-11.6 8.4-4.9 1.2-9.9 1-14.9 1.2-5 0.3-10.1 1.1-15 3.2z"/><path class="q" d="m699.1 466.2c9.2 4.7 18.3 9.3 27.8 13.3 3.1 1.3 6.4 2.5 9.7 2.4 3.4-0.1 6.9-1.8 8.2-4.9 1.4-3.4-0.4-7.5-3.3-9.8-2.9-2.4-6.7-3.3-10.3-4.1-10.7-2.2-22.4-3.5-32.1 3.1z"/><path class="n" d="m732.2 454.1c-9.5 1.2-19.4 1.9-28.5 5.3q-0.4-0.3-0.8-0.5c2.7-8 6.5-15.7 11.6-22.6 0-0.1-0.2-0.2-0.2-0.1-4.1 3.7-8 7.9-11.1 12.8-1.9 2.8-3.4 5.8-4.6 9q-0.5 0.1-1 0.3c-2-8.4-4.2-16.8-6-25.3 0-0.1-0.2 0-0.2 0-0.1 4.8-0.2 9.7 0.1 14.5 0.3 4.3 0.9 8.6 2.1 12.7-6.2-4.3-13.2-7.4-20.4-9.4 0 0-0.1 0.1-0.1 0.2 3.7 2.1 7.1 4.7 10.4 7.2 2.9 2.2 5.7 4.4 8.7 6.3q-0.1 0.2-0.1 0.4-0.1 0.1-0.1 0.2c-2.9 0.8-5.7 2-8.3 3.6-4 2.5-7.5 5.9-10 9.8 0 0 0.1 0.1 0.2 0.1 3.3-3.2 7.4-5.4 11.5-7 2.4-0.9 4.9-1.6 7.4-2.1q0.2 0.5 0.5 0.9c-1.8 3-3 6.2-3.7 9.6-1 5.2-0.5 10.6 1.3 15.5 0 0 0.2 0 0.2-0.1-0.8-5.1 0.1-10.2 1.8-14.6 1.1-2.7 2.3-5.2 3.8-7.5 0.9 0.4 2 0.6 3 0.6 3.7 6.7 8.7 12.6 14.5 17.4 0 0 0.1-0.1 0.1-0.2-2.8-3.7-5.1-7.9-7.2-12-1-2.1-2.1-4.3-3.1-6.5 1.3-0.9 2.3-2.3 2.8-3.9q4.2 0.6 8.2 1.9c3.6 1.2 7 2.9 10.1 5.2 0.1 0 0.2-0.1 0.2-0.2-2.4-3-5.4-5.9-9-8.1-2.8-1.7-6-2.9-9.3-3.2q-0.2-0.6-0.4-1.2 0-0.1 0-0.1c8.6-2.6 17.1-5.7 25.7-8.7 0 0 0-0.2-0.1-0.2z"/><path  d="m697.4 458.3c-2.8 1.1-4.9 3.7-5.3 6.6-0.5 3 0.9 6.1 3.4 7.8 2.4 1.6 5.9 1.7 8.4 0 3-2 4.1-6.3 2.7-9.6-1.4-3.4-5.2-6.3-9.2-4.8z"/><path class="b" d="m1197.8 18.3c-4.4-10.9-3.3-23.8 3-33.7 1-1.6 2.1-3.2 3.7-4.1 1.7-1 3.9-1.2 5.4-0.1 2.1 1.5 2.2 4.6 1.8 7.2-1.6 11.2-7.6 21.3-13.9 30.7z"/><path class="b" d="m1197.1 18c-1.8-10.2-4-21.2-11.4-28.5-1.5-1.5-3.3-2.9-5.3-3.6-2-0.7-4.4-0.7-6.2 0.4-3 1.8-3.9 5.9-2.8 9.2 1.3 4.4 5.2 7.5 8.9 10.3 5.5 4.2 11.1 8.5 16.8 12.2z"/><path class="b" d="m1197.2 18.6c-3.6-2.8-7.3-5.6-11.4-7.6-4.1-2.1-8.7-3.4-13.3-3-4.6 0.4-9.1 2.7-11.6 6.6-1.7 2.7-2.1 6.6 0.1 9 1.6 1.7 4.1 2.1 6.4 2.2 10.6 0.1 20.3-6.4 29.8-7.2z"/><path class="b" d="m1197 18.1c-11.3 1.6-21.4 10.1-25 21-0.6 1.7-1 3.4-0.8 5.1 0.2 1.8 1.1 3.5 2.6 4.3 2 1.1 4.6 0.5 6.3-0.9 1.8-1.4 3-3.4 4.1-5.4 4.3-7.8 8.5-15.7 12.8-24.1z"/><path class="b" d="m1197.5 18.3c-5.3 7.6-7.2 17.5-5.1 26.4 0.5 2.2 1.3 4.4 2.7 6.1 1.3 1.8 3.4 3.1 5.6 3.2 3.5 0 6.4-3 7.3-6.4 0.8-3.4 0-6.9-1-10.2-2.2-6.9-5.6-13.4-9.5-19.1z"/><path class="b" d="m1197 19c5.2-10.3 13-20 24-23.6 2.6-0.9 5.8-1.3 8.1 0.3 3 2.1 2.9 7 0.7 9.9-2.3 3-6 4.4-9.6 5.4-8 2.1-17 2.7-23.2 8z"/><path class="b" d="m1196.7 18.7c8.3-6 19.1-8.4 29.3-6.7 2.1 0.4 4.4 1.1 5.9 2.7 2.6 2.8 1.6 7.9-1.5 10.4-3.1 2.4-7.5 2.6-11.3 1.6-3.8-1-7.3-3-10.8-4.7-3.6-1.7-7.5-3-11.6-3.3z"/><path class="b" d="m1197.2 19.1c4.7 6.6 9.4 13.3 14.6 19.6 1.7 2 3.5 4.1 5.8 5.2 2.4 1.2 5.5 1.3 7.6-0.4 2.2-1.9 2.4-5.4 1.3-8.1-1.2-2.7-3.5-4.7-5.8-6.6-6.6-5.6-14.3-10.8-23.5-9.7z"/><path class="b" d="m1366.1 199.4c5.6-5.4 14-8 21.7-6.6 1.2 0.2 2.5 0.6 3.5 1.3 1 0.8 1.7 2.1 1.4 3.3-0.4 1.7-2.3 2.6-4 3-7.4 1.8-15.2 0.6-22.6-1z"/><path class="b" d="m1366.1 199c5.9-3.7 12.1-7.9 14.9-14.3 0.5-1.4 0.9-2.8 0.8-4.2 0-1.4-0.6-2.9-1.8-3.8-1.8-1.4-4.6-0.9-6.4 0.6-2.4 1.9-3.3 5.1-4.1 8.1-1.3 4.5-2.5 9.1-3.4 13.6z"/><path class="b" d="m1365.8 199.2c0.8-3 1.6-6 1.8-9.1 0.3-3-0.1-6.2-1.5-9-1.4-2.7-3.9-4.9-7-5.5-2.1-0.3-4.6 0.4-5.5 2.3-0.7 1.4-0.3 3.1 0.2 4.6 2.6 6.6 9.1 11 12 16.7z"/><path class="b" d="m1366 198.9c-3.8-6.6-11.6-10.8-19.3-10.3-1.2 0.1-2.3 0.3-3.4 0.9-1 0.5-1.8 1.5-2 2.6-0.2 1.5 0.9 3 2.2 3.7 1.3 0.8 2.8 1 4.3 1.2 6 0.7 11.9 1.3 18.2 1.9z"/><path class="b" d="m1366 199.3c-6-1.4-12.6-0.1-17.7 3.5-1.2 0.8-2.3 1.8-3.1 3.1-0.7 1.3-1 2.9-0.5 4.3 0.8 2.2 3.5 3.3 5.8 2.9 2.3-0.3 4.3-1.7 6.1-3.2 3.7-3.1 6.8-6.8 9.4-10.6z"/><path class="b" d="m1365.5 199.1c7.7 0.7 15.7 3.1 20.7 9 1.2 1.4 2.2 3.2 1.8 5.1-0.5 2.4-3.6 3.6-6 2.9-2.4-0.6-4.2-2.6-5.7-4.6-3.4-4.4-6-9.9-10.8-12.4z"/><path class="b" d="m1365.6 198.8c5.8 3.7 10 9.8 11.5 16.6 0.3 1.4 0.5 3-0.2 4.3-1.1 2.4-4.5 3-6.8 1.7-2.3-1.3-3.5-4-3.8-6.6-0.4-2.6 0-5.3 0.1-7.9 0.2-2.7 0-5.4-0.8-8.1z"/><path class="b" d="m1365.5 199.3c-3 4.6-5.9 9.1-8.5 13.9-0.9 1.6-1.7 3.2-1.8 5-0.2 1.8 0.5 3.7 2.1 4.6 1.8 0.9 4 0.2 5.4-1.3 1.4-1.4 2.1-3.3 2.7-5.2 1.7-5.5 3-11.6 0.1-17z"/><path class="b" d="m543.7 298.1c3.9-3.8 9.7-5.6 15.2-4.7 0.8 0.2 1.7 0.4 2.4 1 0.7 0.5 1.2 1.4 1 2.3-0.3 1.2-1.6 1.8-2.8 2-5.2 1.3-10.6 0.5-15.8-0.6z"/><path class="b" d="m543.7 297.8c4.1-2.6 8.5-5.5 10.4-10.1 0.4-0.9 0.7-1.9 0.6-2.9-0.1-1-0.5-2-1.3-2.6-1.3-1-3.2-0.7-4.5 0.4-1.7 1.3-2.3 3.6-2.9 5.7-0.8 3.1-1.7 6.3-2.3 9.5z"/><path class="b" d="m543.4 297.9c0.6-2.1 1.2-4.2 1.4-6.3 0.1-2.2-0.1-4.4-1.1-6.3-1-2-2.8-3.5-4.9-3.9-1.5-0.3-3.3 0.2-3.9 1.6-0.5 1-0.2 2.2 0.2 3.2 1.8 4.6 6.3 7.7 8.3 11.7z"/><path class="b" d="m543.6 297.7c-2.7-4.6-8.2-7.5-13.5-7.2-0.8 0.1-1.7 0.2-2.4 0.6-0.7 0.4-1.3 1.1-1.4 1.9-0.1 1 0.6 2 1.5 2.6 0.9 0.5 2 0.6 3.1 0.8 4.1 0.5 8.3 0.9 12.7 1.3z"/><path class="b" d="m543.6 298c-4.2-1-8.8-0.1-12.4 2.4-0.8 0.6-1.6 1.3-2.2 2.2-0.5 0.9-0.7 2.1-0.3 3.1 0.6 1.5 2.4 2.2 4 2 1.6-0.2 3-1.2 4.3-2.3 2.6-2.1 4.8-4.7 6.6-7.4z"/><path class="b" d="m543.2 297.9c5.4 0.4 11 2.1 14.5 6.2 0.9 1 1.6 2.3 1.3 3.6-0.4 1.7-2.5 2.5-4.2 2.1-1.7-0.5-2.9-1.8-4-3.2-2.3-3.2-4.2-7-7.6-8.7z"/><path class="b" d="m543.3 297.7c4.1 2.6 7.1 6.8 8.1 11.6 0.2 1 0.3 2.1-0.1 3-0.8 1.7-3.2 2.1-4.8 1.2-1.6-1-2.5-2.8-2.7-4.7-0.3-1.8 0-3.6 0.1-5.5 0.1-1.8 0-3.8-0.6-5.6z"/><path class="b" d="m543.2 298c-2 3.2-4.1 6.4-5.9 9.8-0.6 1.1-1.2 2.2-1.3 3.4-0.1 1.3 0.4 2.7 1.5 3.2 1.2 0.7 2.8 0.2 3.8-0.8 1-1 1.4-2.4 1.9-3.7 1.2-3.8 2.1-8.1 0-11.9z"/><path class="b" d="m199.8 282c6.8-6.6 16.9-9.7 26.3-8 1.5 0.2 3.1 0.6 4.3 1.6 1.2 0.9 2 2.5 1.7 4-0.5 2.1-2.8 3.1-4.9 3.6-9 2.1-18.4 0.7-27.4-1.2z"/><path class="b" d="m199.8 281.5c7.2-4.5 14.7-9.6 18-17.4 0.7-1.6 1.2-3.4 1.1-5.1-0.1-1.7-0.8-3.5-2.2-4.6-2.3-1.7-5.6-1.1-7.8 0.7-2.9 2.4-4.1 6.3-5.1 9.9-1.5 5.5-3 11-4 16.5z"/><path class="b" d="m199.3 281.7c1-3.6 2-7.2 2.3-11 0.3-3.7-0.1-7.6-1.8-10.9-1.7-3.4-4.8-6.1-8.5-6.7-2.6-0.5-5.7 0.4-6.8 2.8-0.8 1.7-0.3 3.7 0.3 5.5 3.2 8 11 13.4 14.5 20.3z"/><path class="b" d="m199.7 281.4c-4.7-8.1-14.2-13.1-23.5-12.5-1.4 0.1-2.9 0.3-4.1 1-1.3 0.7-2.3 1.9-2.5 3.3-0.2 1.8 1 3.6 2.6 4.5 1.6 0.9 3.5 1.1 5.4 1.3 7.2 0.9 14.4 1.7 22.1 2.4z"/><path class="b" d="m199.6 281.8c-7.3-1.7-15.3-0.1-21.4 4.3-1.5 1-2.9 2.2-3.8 3.8-0.9 1.6-1.3 3.6-0.7 5.3 1.1 2.6 4.3 3.9 7.1 3.5 2.8-0.4 5.2-2.1 7.4-3.9 4.5-3.8 8.3-8.3 11.4-13z"/><path class="b" d="m199 281.7c9.3 0.7 19.1 3.7 25.2 10.8 1.4 1.8 2.7 4 2.2 6.2-0.7 3-4.4 4.4-7.3 3.6-2.9-0.8-5.1-3.1-7-5.6-4-5.4-7.2-12-13.1-15z"/><path class="b" d="m199.1 281.3c7.1 4.5 12.2 11.9 14 20.1 0.4 1.7 0.6 3.6-0.2 5.2-1.3 2.9-5.5 3.7-8.3 2.1-2.8-1.6-4.2-4.8-4.6-8-0.5-3.2 0-6.4 0.2-9.6 0.1-3.2 0-6.6-1.1-9.8z"/><path class="b" d="m199 281.8c-3.6 5.6-7.2 11.2-10.3 17-1.1 1.9-2.1 3.9-2.2 6.1-0.2 2.1 0.7 4.5 2.6 5.5 2.1 1.1 4.8 0.2 6.5-1.5 1.7-1.7 2.5-4.1 3.3-6.3 2.1-6.7 3.7-14.1 0.1-20.8z"/><path class="b" d="m1761.7 344.3c-3.8-9.4-2.8-20.6 2.6-29.1 0.8-1.4 1.8-2.8 3.2-3.6 1.4-0.8 3.3-1 4.7-0.1 1.8 1.3 1.9 4 1.6 6.3-1.5 9.7-6.7 18.4-12.1 26.5z"/><path class="b" d="m1761.1 344.1c-1.6-8.9-3.5-18.3-9.9-24.7-1.3-1.3-2.8-2.5-4.6-3.1-1.7-0.6-3.8-0.6-5.4 0.4-2.5 1.5-3.3 5.1-2.4 7.9 1.2 3.8 4.5 6.5 7.7 8.9 4.8 3.7 9.7 7.4 14.6 10.6z"/><path class="b" d="m1761.2 344.6c-3.2-2.4-6.4-4.8-9.9-6.6-3.6-1.8-7.6-2.9-11.5-2.6-4 0.4-7.9 2.4-10 5.7-1.5 2.4-1.9 5.8 0 7.8 1.4 1.5 3.6 1.9 5.6 1.9 9.1 0.1 17.6-5.5 25.8-6.2z"/><path class="b" d="m1761 344.2c-9.8 1.4-18.6 8.7-21.7 18.2-0.4 1.4-0.8 2.9-0.6 4.4 0.1 1.5 0.9 3 2.2 3.7 1.7 1 4 0.4 5.5-0.8 1.5-1.2 2.5-3 3.5-4.7 3.7-6.8 7.4-13.6 11.1-20.8z"/><path class="b" d="m1761.4 344.4c-4.5 6.5-6.2 15.1-4.4 22.8 0.5 1.9 1.1 3.8 2.3 5.3 1.2 1.5 3 2.7 4.9 2.7 3 0.1 5.6-2.6 6.3-5.5 0.7-2.9 0.1-6-0.9-8.8-1.9-6-4.8-11.6-8.2-16.5z"/><path class="b" d="m1761 344.9c4.5-8.9 11.3-17.3 20.7-20.4 2.4-0.8 5.1-1.2 7.1 0.2 2.6 1.9 2.5 6.1 0.6 8.7-2 2.5-5.2 3.8-8.3 4.6-7 1.9-14.7 2.4-20.1 6.9z"/><path class="b" d="m1760.7 344.7c7.3-5.2 16.6-7.3 25.4-5.8 1.9 0.4 3.8 0.9 5.1 2.3 2.3 2.5 1.4 6.9-1.3 9-2.7 2.1-6.5 2.2-9.8 1.4-3.3-0.9-6.2-2.6-9.3-4.1-3.1-1.4-6.5-2.6-10.1-2.8z"/><path class="b" d="m1761.2 345c4 5.8 8.1 11.5 12.6 17 1.4 1.7 3 3.5 5.1 4.6 2 1 4.7 1.1 6.5-0.4 1.9-1.6 2.1-4.7 1.1-7.1-1-2.3-3-4.1-4.9-5.7-5.8-4.8-12.4-9.3-20.4-8.4z"/><path class="b" d="m734.4 12.7c-3.8-9.4-2.8-20.5 2.6-29.1 0.8-1.4 1.8-2.8 3.2-3.6 1.5-0.8 3.3-1 4.7-0.1 1.8 1.3 1.9 4 1.6 6.3-1.5 9.7-6.7 18.4-12.1 26.5z"/><path class="b" d="m733.8 12.5c-1.6-8.9-3.5-18.3-9.9-24.7-1.3-1.3-2.8-2.5-4.6-3.1-1.7-0.6-3.8-0.6-5.4 0.4-2.5 1.5-3.3 5.1-2.4 7.9 1.2 3.9 4.5 6.5 7.7 8.9 4.8 3.7 9.7 7.4 14.6 10.6z"/><path class="b" d="m733.9 13c-3.2-2.4-6.4-4.8-9.9-6.6-3.6-1.8-7.6-2.9-11.5-2.6-4 0.4-7.9 2.4-10 5.8-1.5 2.3-1.9 5.7 0 7.7 1.4 1.5 3.6 1.9 5.6 1.9 9.2 0.2 17.6-5.5 25.8-6.2z"/><path class="b" d="m733.7 12.6c-9.8 1.4-18.6 8.7-21.7 18.2-0.4 1.4-0.8 2.9-0.6 4.4 0.1 1.5 0.9 3 2.2 3.7 1.7 1 4 0.4 5.5-0.8 1.5-1.2 2.5-2.9 3.5-4.7 3.7-6.7 7.4-13.6 11.1-20.8z"/><path class="b" d="m734.1 12.8c-4.5 6.6-6.2 15.1-4.4 22.8 0.5 1.9 1.1 3.8 2.3 5.3 1.2 1.6 3 2.7 4.9 2.7 3.1 0.1 5.6-2.6 6.3-5.5 0.7-2.9 0.1-6-0.9-8.8-1.9-6-4.8-11.6-8.2-16.5z"/><path class="b" d="m733.7 13.4c4.5-8.9 11.3-17.4 20.8-20.5 2.3-0.8 5-1.1 7 0.2 2.6 1.9 2.5 6.1 0.6 8.7-1.9 2.6-5.2 3.8-8.3 4.6-7 1.9-14.7 2.4-20.1 7z"/><path class="b" d="m733.4 13.1c7.3-5.2 16.6-7.3 25.4-5.8 1.9 0.4 3.8 0.9 5.1 2.3 2.3 2.5 1.4 6.9-1.3 9-2.7 2.1-6.5 2.3-9.8 1.4-3.3-0.9-6.2-2.6-9.3-4-3.1-1.5-6.5-2.6-10.1-2.9z"/><path class="b" d="m733.9 13.4c4 5.8 8.1 11.6 12.6 17 1.5 1.8 3 3.5 5.1 4.6 2 1 4.7 1.1 6.5-0.4 1.9-1.6 2.1-4.7 1.1-7-1-2.4-3-4.1-4.9-5.8-5.8-4.8-12.4-9.3-20.4-8.4z"/><path class="b" d="m1215 461.6c-13.3 5.4-29.2 4-41.4-3.6-1.9-1.3-3.9-2.7-5-4.7-1.2-2-1.5-4.7-0.1-6.6 1.8-2.6 5.6-2.7 8.8-2.2 13.8 2 26.2 9.4 37.7 17.1z"/><path class="b" d="m1214.7 462.4c-4.6 7.1-9.8 13.9-15 20.8-1.8 2.2-3.6 4.6-5.7 6.6h-18.7c-0.9-2.1-0.8-4.6-0.1-6.8 0.9-2.5 2.5-4.6 4.4-6.5 6.7-6.7 15.8-10 25.2-12.1q2.7-0.6 5.4-1.2 2.3-0.4 4.5-0.8z"/><path class="b" d="m1215.5 462.3q0 0 0 0 0 0.3 0 0.6 0 0 0 0c0.3 3.1 1.1 6.1 2.1 9.2q0 0 0 0c1.8 5.8 4.2 11.6 5.6 17.7h-20.9c0.2-4.7 1.6-9.3 3.7-13.4 2.4-4.8 5.6-9.1 8.9-13.4q0.1-0.1 0.2-0.3 0.1 0 0.1-0.1 0.1-0.1 0.2-0.3 0 0 0.1 0z"/><path class="b" d="m1214.8 462.6q0.2 0 0.3 0.1 0.2 0.1 0.3 0.2 0.1 0 0.1 0c10 5.2 19.5 10.3 28.9 15.5 2.4 1.3 5 2.7 6.7 4.9 1.4 1.8 2.2 4.3 1.6 6.5h-19.7c-6.8-4.1-12.2-10.4-15.4-17.7q0 0 0 0c-1.3-2.9-2.2-5.9-2.7-9.1q-0.1-0.2-0.1-0.4z"/><path class="b" d="m1215.1 462c9.3 6.5 21.4 8.8 32.4 6.2 2.7-0.6 5.4-1.6 7.5-3.2 2.2-1.7 3.8-4.3 3.9-7 0.1-4.3-3.7-7.9-7.8-8.9-4.2-1.1-8.5-0.1-12.6 1.2-8.5 2.7-16.4 6.8-23.4 11.7z"/><path class="b" d="m1215.9 462.6c-12.6-6.4-24.6-16-29.1-29.5-1-3.2-1.6-7.1 0.4-9.9 2.6-3.8 8.6-3.7 12.3-0.9 3.6 2.7 5.4 7.3 6.6 11.7 2.6 9.9 3.3 21 9.8 28.6z"/><path class="b" d="m1215.5 463c-7.3-10.3-10.3-23.6-8.1-36 0.4-2.7 1.2-5.4 3.2-7.3 3.5-3.3 9.8-2 12.7 1.9 3 3.8 3.3 9.1 2 13.8-1.2 4.7-3.7 8.9-5.7 13.3-2 4.4-3.7 9.2-4.1 14.3z"/><path class="b" d="m1216 462.3c8.2-5.7 16.4-11.5 24.1-17.9 2.5-2 5-4.3 6.5-7.2 1.4-2.9 1.6-6.7-0.5-9.2-2.4-2.8-6.7-3.1-10-1.6-3.3 1.4-5.9 4.2-8.2 7-6.8 8.1-13.2 17.6-11.9 28.9z"/><path class="b" d="m547 99.2c-5.3-13.4-3.9-29.2 3.7-41.4 1.2-2 2.7-3.9 4.7-5.1 2-1.1 4.6-1.4 6.5-0.1 2.7 1.9 2.8 5.7 2.3 8.9-2.1 13.8-9.4 26.1-17.2 37.7z"/><path class="b" d="m546.2 98.9c-2.2-12.6-5-26.1-14-35.1-1.9-1.9-4-3.6-6.5-4.4-2.5-0.9-5.4-0.8-7.7 0.5-3.6 2.2-4.7 7.2-3.4 11.3 1.6 5.4 6.4 9.2 10.9 12.6 6.9 5.2 13.7 10.4 20.7 15.1z"/><path class="b" d="m546.4 99.6c-4.5-3.4-9.1-6.9-14.1-9.4-5.1-2.6-10.7-4.2-16.3-3.7-5.7 0.5-11.3 3.4-14.2 8.2-2.1 3.3-2.7 8.1 0 11 2 2.1 5.1 2.6 7.9 2.7 13 0.2 25-7.8 36.7-8.8z"/><path class="b" d="m546.1 99c-14 2-26.4 12.4-30.8 25.8-0.7 2-1.2 4.1-0.9 6.3 0.2 2.1 1.3 4.2 3.2 5.3 2.4 1.3 5.6 0.5 7.8-1.2 2.1-1.7 3.5-4.2 4.9-6.6 5.3-9.7 10.5-19.3 15.8-29.6z"/><path class="b" d="m546.7 99.3c-6.5 9.3-8.8 21.4-6.2 32.4 0.6 2.7 1.5 5.3 3.2 7.5 1.7 2.2 4.2 3.8 7 3.8 4.3 0.1 7.8-3.6 8.9-7.8 1-4.1 0-8.5-1.3-12.6-2.7-8.4-6.8-16.3-11.6-23.3z"/><path class="b" d="m546.1 100c6.4-12.6 16-24.6 29.4-29 3.3-1.1 7.2-1.6 10 0.4 3.7 2.6 3.7 8.6 0.9 12.2-2.8 3.7-7.3 5.4-11.8 6.6-9.9 2.6-20.9 3.4-28.5 9.8z"/><path class="b" d="m545.7 99.7c10.3-7.4 23.5-10.4 36-8.2 2.6 0.5 5.4 1.3 7.2 3.2 3.3 3.6 2 9.8-1.8 12.8-3.8 3-9.2 3.2-13.9 2-4.6-1.2-8.9-3.7-13.3-5.7-4.3-2.1-9.1-3.8-14.2-4.1z"/><path class="b" d="m546.4 100.2c5.7 8.1 11.5 16.3 17.8 24 2.1 2.5 4.3 5.1 7.3 6.5 2.9 1.5 6.7 1.6 9.2-0.5 2.8-2.3 3.1-6.7 1.6-10-1.4-3.3-4.2-5.8-7-8.1-8.2-6.8-17.6-13.2-28.9-11.9z"/></g></svg>