<svg version="1.2" xmlns="http://www.w3.org/2000/svg" viewBox="0 0 325 353" width="325" height="353"><defs><clipPath clipPathUnits="userSpaceOnUse" id="cp1"><path d="m520 353h-1920v-480h1920z"/></clipPath></defs><style>.a{fill:#492225}.b{fill:#30181b}.c{fill:#f1cc95}.d{fill:#e2b87e}.e{fill:#e9b482}.f{fill:#fff}.g{fill:#30171b}.h{fill:#de7171}.i{fill:#7e5e35}.j{fill:#ffc545}.k{fill:#ea9e4f}</style><g clip-path="url(#cp1)"><path class="a" d="m199.9 32.9c0 0-3.1-19.5-34-28.5-31-9-40.1-0.2-53.3 6.8-13.1 7-19.1 8.3-29.2 20.5-8.8 10.8-4 10.8-14.1 23.6-6.9 8.8-22.6 34.2-19 52 3.6 17.8-10 31.8-17 49.1-6.9 17.3-0.4 35.2 3.3 57.9 2.8 17.4-3.3 41.6-3.3 63 0 22.7 41.4-0.5 55 14.8 13.6 15.2 29.3 58.4 55.8 33.3 26.5-25 4.3-84.3 0-95.9-4.4-11.6-2.9-21.3-3.8-32.9-1-11.6 17.6-20.2 8.3-32.5-9.3-12.4-30.2-20.8-32.1-31.5-1.9-10.7-3.6-9-7.4-16.5-3.8-7.4-0.6-27.3 9.1-36.4 16.2-15.5 64.9-1.6 81.7-46.8z"/><path class="a" d="m109.1 32.9c0 0 3.1-19.5 34.1-28.5 31-9 40.1-0.2 53.2 6.8 13.2 7 22.2 8.9 32.2 21.1 8.9 10.8 1.1 10.2 11.1 23 7 8.8 22.6 34.2 19 52-3.6 17.8 10 31.8 17 49.1 7 17.3 0.4 35.2-3.3 57.9-2.8 17.4 3.3 41.6 3.3 63 0 22.7-41.3-0.5-55 14.8-13.6 15.2-29.2 58.4-55.7 33.3-26.5-25-4.4-84.3 0-95.9 4.3-11.6 2.9-21.3 3.8-32.9 0.9-11.6-17.7-20.2-8.4-32.5 9.3-12.4 30.2-20.8 32.1-31.5 2-10.7 3.6-9 7.4-16.5 3.9-7.4 0.7-27.3-9-36.4-16.3-15.5-65-1.6-81.8-46.8z"/><path class="b" d="m112.6 102.9c0 0-10.4 29-10.1 46.6 0.2 17.6 9.1 28.6 4.7 36.9-4.3 8.4-15.3 33.8-12.4 45.3 3 11.6 120.1 5.4 120.1 5.4 0 0 10.9-15 1.2-35.3-9.8-20.3-14.4-18.7-10.9-32.3 3.4-13.6 4.5-22.2-1.5-38-5.9-15.8-91.1-28.6-91.1-28.6z"/><path class="c" d="m207.4 100.5c0 0 11.8-8.4 17.4-1.4 5.6 7.1-1.1 27.5-10 34.6-8.9 7-11.9-4.4-11.9-4.4z"/><path class="d" d="m219.6 123.2c0 0 5-10.2 4.5-17.7-0.4-7.5-11.2-5.8-13.1-0.5-2 5.3-3.5 10.9-2.9 12.3 0.5 1.4 3.8 0.2 3.8 2.5 0 2.4-1.5 2.6-2.5 4.4-1 1.8-0.2 3.2 3.2 3.1 3.4 0 6.1-6.6 3.5-11.5-2.7-4.9-4-6.4-2.2-6.5 1.8-0.2 4.3-0.8 4.6 3.6 0.7-3.4-0.5-5.1-3.6-6.2-3.1-1.1 1-4.1 4.7-4 3.8 0.2 3.9 10.9 0 20.5z"/><path class="c" d="m100.9 100.5c0 0-11.7-8.4-17.4-1.4-5.6 7.1 1.1 27.5 10 34.6 9 7 11.9-4.4 11.9-4.4z"/><path class="d" d="m88.7 123.2c0 0-5-10.2-4.5-17.7 0.5-7.5 11.2-5.8 13.2-0.5 1.9 5.3 3.4 10.9 2.9 12.3-0.6 1.4-3.9 0.2-3.9 2.5 0 2.4 1.5 2.6 2.5 4.4 1 1.8 0.2 3.2-3.2 3.1-3.3 0-6.1-6.6-3.4-11.5 2.6-4.9 4-6.4 2.2-6.5-1.8-0.2-4.4-0.8-4.6 3.6-0.7-3.4 0.5-5.1 3.5-6.2 3.1-1.1-1-4.1-4.7-4-3.8 0.2-3.8 10.9 0 20.5z"/><path class="c" d="m229.2 229.1c0 0-32.6-11.7-41.2-21.5-8.6-9.7-6.4-41.6-6.4-41.6l-28.1 3.8-28.1-3.8c0 0 2.2 31.9-6.4 41.6-8.7 9.8-41.2 21.5-41.2 21.5 0 0-1.6 82 13 89.3 10 5 38.8 7.8 56 9v0.8c0 0 2.5-0.1 6.7-0.4 4.1 0.3 6.7 0.4 6.7 0.4v-0.8c17.2-1.2 46-4 56-9 14.6-7.3 13-89.3 13-89.3z"/><path class="d" d="m170.9 244c-0.5 0.6 19.8-10.7 40.6-7.4-7.2-5.2-30.7-4.9-40.6 7.4z"/><path class="d" d="m137.6 244c0.5 0.6-19.8-10.7-40.6-7.4 7.2-5.2 30.7-4.9 40.6 7.4z"/><path class="d" d="m181.7 185.5c-0.8-10.2-0.1-19.5-0.1-19.5l-28.1 3.8-28.1-3.8c0 0 0.7 10.4-0.3 21.2 16.3 15.5 34.1 23.7 56.6-1.7z"/><path class="c" d="m98.9 98.2c0 0-0.3 34.1 11.9 54.1 12.2 20 36 28.6 43.1 28.6 7 0 30-11.6 39.6-24.7 9.6-13.2 14.8-42.8 15.4-55.3 0.6-12.5-5.6-61.1-31.5-67.2-25.8-6-53.8-9.3-68 4-14.1 13.4-10.5 60.5-10.5 60.5z"/><path class="a" d="m100.4 107.3c0 0 2.8-7.2 4.3-19.9 1.2-10.4 5.7-21.1 10-28.2 3.7-6.3 15.2-12.3 40.2-12.3 25 0 34.1 6.1 37.7 13.7 3.6 7.7 6.6 25.2 10.3 31.1 3.8 5.9 4.4 15.6 4.4 15.6 0 0 3-8.4 13.7-10.7 2.6-13-0.8-48.5-18.1-68.1-14.1-16-26.6-19.1-51.1-19.1-31.3 0-48.5 15.3-56 32.8-11.1 26.1-6.6 54.1-6.6 54.1 0 0 9.4 2.8 11.2 11z"/><path class="e" d="m168.7 106.8c0 0 1.4-5 9.7-6.1 8.3-1.1 16.8 2.1 16.8 2.1 0 0-4.6-1-13.9 0.7-9.2 1.7-12.6 3.3-12.6 3.3z"/><path class="f" d="m168.7 106.8c0 0 12.2-6.4 26.5-4-7.9 6.9-18.6 10.2-26.5 4z"/><path class="a" d="m184.7 104.7c0-0.8-0.3-1.6-0.6-2.2-2.9 0.3-5.5 0.8-7.7 1.4q-0.1 0.4-0.1 0.8c0 2.3 1.9 4.1 4.2 4.1 2.3 0 4.2-1.8 4.2-4.1z"/><path class="g" d="m180.5 106.6c1.1 0 2-0.8 2-1.9 0-0.8-0.5-1.5-1.2-1.8q-1.2 0.2-2.3 0.4c-0.3 0.4-0.5 0.8-0.5 1.4 0 1.1 0.9 1.9 2 1.9z"/><path class="f" d="m183 104.4c0 0.4-0.3 0.7-0.7 0.7-0.4 0-0.8-0.3-0.8-0.7 0-0.5 0.4-0.8 0.8-0.8 0.4 0 0.7 0.3 0.7 0.8z"/><path class="e" d="m140.2 106.8c0 0-1.4-5-9.7-6.1-8.3-1.1-16.8 2.1-16.8 2.1 0 0 4.6-1 13.9 0.7 9.2 1.7 12.6 3.3 12.6 3.3z"/><path class="f" d="m140.2 106.8c0 0-12.2-6.4-26.5-4 7.9 6.9 18.6 10.2 26.5 4z"/><path class="a" d="m124.2 104.7c0-0.8 0.3-1.6 0.7-2.2 2.8 0.3 5.4 0.8 7.6 1.4q0.1 0.4 0.1 0.8c0 2.3-1.9 4.1-4.2 4.1-2.3 0-4.2-1.8-4.2-4.1z"/><path class="g" d="m128.4 106.6c-1.1 0-2-0.8-2-1.9 0-0.8 0.5-1.5 1.2-1.8q1.2 0.2 2.3 0.4c0.3 0.4 0.5 0.8 0.5 1.4 0 1.1-0.9 1.9-2 1.9z"/><path class="f" d="m125.9 104.4c0 0.4 0.3 0.7 0.7 0.7 0.4 0 0.8-0.3 0.8-0.7 0-0.5-0.4-0.8-0.8-0.8-0.4 0-0.7 0.3-0.7 0.8z"/><path class="a" d="m169.5 95.6c0 0 16.9-5.9 21.4-6.4 4.6-0.4 9 5.2 9 5.2 0 0-3.1-6.1-8.9-7.8-5.9-1.7-16.8 2.7-20.5 4.2-3.7 1.6-5.1 5.6-1 4.8z"/><path class="a" d="m139.5 95.4c0 0-16.9-5.7-21.5-6-4.5-0.4-8.9 5.3-8.9 5.3 0 0 3-6.2 8.9-8 5.8-1.8 16.8 2.4 20.5 3.9 3.7 1.5 5.2 5.6 1 4.8z"/><path class="h" d="m137.7 146.5c0 0 5.9-0.6 8.8-2.3 3-1.8 6-1.5 7.2 0 3.1-2.1 5.2-2.1 7.3-0.7 2.1 1.5 10.3 3.3 10.3 3.3 0 0-6.1 8.1-13 9.2-10.8 1.7-15.6-4.5-20.6-9.5z"/><path class="i" d="m137.7 146.5c2.8 0.6 5.6 0.9 8.4 1.1 2.8 0.2 5.6 0.4 8.4 0.3 2.8 0 5.6-0.1 8.4-0.3q4.2-0.3 8.4-0.8c-2.8 0.6-5.6 1-8.4 1.3q-4.2 0.4-8.4 0.4c-2.8 0-5.7-0.1-8.5-0.4-2.8-0.3-5.6-0.8-8.3-1.6z"/><path class="d" d="m154.1 135.9c0 0-1.6 0.5-4.7-0.9-3-1.5-5.6-3.7-5.3-4.5 0.3-0.7 5.3-1.2 9.6-1.3 4.3 0 9 0.6 9.6 0.8 0.6 0.3-5 5.9-9.2 5.9z"/><path class="a" d="m168.7 106.8c2-1.4 4.2-2.4 6.4-3.1 2.3-0.8 4.7-1.3 7-1.6 2.4-0.2 4.8-0.4 7.2-0.2 1.2 0 2.4 0.2 3.5 0.3q1.8 0.3 3.5 0.7c-2.3-0.1-4.7-0.2-7-0.1h-1.8l-1.7 0.1c-1.2 0.1-2.4 0.2-3.5 0.4q-3.5 0.4-6.9 1.3c-2.3 0.6-4.5 1.2-6.7 2.2z"/><path class="a" d="m140.3 106.8c-2.2-1-4.5-1.6-6.7-2.2q-3.4-0.9-6.9-1.3c-1.2-0.2-2.3-0.3-3.5-0.4l-1.8-0.1h-1.7c-2.4-0.1-4.7 0-7.1 0.1q1.8-0.4 3.5-0.7c1.2-0.1 2.4-0.3 3.6-0.3 2.4-0.2 4.8 0 7.1 0.2 2.4 0.3 4.7 0.8 7 1.6 2.3 0.7 4.5 1.7 6.5 3.1z"/><path class="j" d="m86.6 225.7c0 0-0.5 11.2 3.9 29 4.3 17.9 63.2 18.3 63.2 18.3 0 0 56.6 1.4 62.5-21.1 5.9-22.5 4.2-26.2 4.2-26.2 0 0 31.5 8.9 43.3 14.5 11.9 5.6 49.3 84.4 56.2 98.2 6.9 13.8 3.9 20 3.9 20l-127.2 96.1-197.5-96.1c0 0 31.9-98.2 37.6-111.3 5.6-13.2 49.9-21.4 49.9-21.4z"/><path class="f" d="m76.3 228c0.1 8.6 1 25.4 5.6 37.6 9.3 24.8 71.8 28.5 71.8 28.5 0 0 59.5-2 70.4-40.6 3.4-12.3 4.7-20.4 5.1-25.2-5.2-1.6-8.8-2.6-8.8-2.6 0 0 1.7 3.7-4.2 26.2-5.9 22.5-62.5 21.1-62.5 21.1 0 0-58.9-0.4-63.2-18.3-4.4-17.8-3.9-29-3.9-29 0 0-4.2 0.8-10.3 2.3z"/><path class="k" d="m64.7 363.4c0 0-17.2-18.7-8.7-43.8 8.4-25 11.2-38.1 8.7-46.6-5.6 23.8-10 33.8-15.9 46.9-6 13.2-1.6 34.8 15.9 43.5z"/><path class="k" d="m239.5 363.4c0 0 17.2-18.7 8.8-43.8-8.5-25-11.3-38.1-8.8-46.6 5.6 23.8 10 33.8 16 46.9 5.9 13.2 1.5 34.8-16 43.5z"/><path class="a" d="m155.5 42.4c0 0 20.4 4.2 16.4 18.2-4 14.1 0.9 21.7 8.5 22.8 7.7 1.1 20.5 5.8 20.7 18.4 0.1 7.2-3.3 19.1 2.6 29.7 9.4 16.7-2.2 41.3-2.2 41.3 0 0 61.2-48.2 24.6-103.9-14.5-22.2-70.6-26.5-70.6-26.5z"/><path class="a" d="m201.6 112c-3.9-23.9-18.6-23.4-27.4-23.1h-0.5c-3.2 0.1-6-1-8.1-3.2-3.4-3.6-4.3-9.1-3.9-13 0.2-2.8 1.6-5.1 3-7.3 2.2-3.6 4.2-7 2-12.5-3.5-9-12.1-7-12.5-6.9l-0.1-0.6c0.1 0 9.5-2.2 13.2 7.2 2.3 5.9 0 9.6-2.1 13.1-1.4 2.3-2.7 4.4-3 7-0.3 3.9 0.6 9.1 3.8 12.6 2 2.1 4.6 3.1 7.7 3h0.5c8.9-0.3 24-0.8 28 23.6z"/><path class="a" d="m100.2 116.4l-0.2-0.5c17.9-8 20.5-21.5 23.4-37.1 0.9-4.7 1.9-9.6 3.3-14.7 6-22 22.7-19 22.8-18.9l-0.1 0.5c-0.1 0-16.3-3-22.2 18.6-1.4 5-2.3 9.9-3.2 14.6-3 15.8-5.6 29.4-23.8 37.5z"/><path class="a" d="m110.6 100.7l-0.1-0.6c16.6-2.5 16.9-5.5 19.3-28.5l0.3-2.6c2.7-25.4 22.5-23.9 22.7-23.8v0.5c-0.2 0-19.5-1.5-22.1 23.3l-0.3 2.7c-2.4 22.8-2.8 26.4-19.8 29z"/><path class="a" d="m180.4 86.6c-10.1-1.4-16.4-4.5-19.2-9.4-2.6-4.4-2.3-10.1 0.9-18.2 1.6-3.9 1.6-7 0.2-9.4-2.2-3.6-7.2-4-7.3-4l0.1-0.6c0.2 0 5.3 0.5 7.7 4.3 1.5 2.5 1.5 5.9-0.1 9.9-3.2 7.9-3.5 13.5-1 17.7 2.7 4.7 8.9 7.7 18.8 9.1z"/><path class="a" d="m153.4 46.9c0 0-32.3-4.5-34.3 25.8-1.1 16.7-4 24.6-9.2 30.9-4.5 5.5-8.9 18.6-6.6 30 2.3 11.3-21 4-19.1 21.5 1.2 11.2-16.5 22.6-16.5 22.6 0 0-15.4-68.1 0.9-100.9 33.6-67.4 84.8-29.9 84.8-29.9z"/><path class="b" d="m154.9 46.9c-2.8-3.7-6.5-6.7-10.6-8.6-2-0.9-4.2-1.4-6.4-1.6-1.1 0-2.2-0.1-3.3 0.2-0.5 0-1.1 0-1.6 0.2l-1.6 0.4c-0.5 0.1-1 0.3-1.5 0.6l-1.6 0.6c-0.5 0.2-0.9 0.5-1.4 0.7-0.5 0.3-1 0.5-1.4 0.8-1.9 1.1-3.6 2.6-5 4.2-1.5 1.5-2.7 3.4-3.7 5.3q-0.8 1.4-1.3 2.9c-0.4 1-0.7 2.1-0.9 3l0.1-0.2c-0.5 4.6-1.6 8.8-3.1 13-1.5 4.2-3.6 8.3-6.1 11.9-2.6 3.7-5.7 7.1-9.3 9.9-0.8 0.8-1.8 1.4-2.7 2l-2.6 1.8c-1.5 1.1-2.8 2.4-3.8 3.8-2 2.9-2.5 6.6-2.1 10.5 0.3 3.9 1.5 7.9 2.5 12.1 0.5 2.1 1 4.2 1.3 6.5 0.4 2.3 0.6 4.6 0.3 7.2-0.2 1.2-0.5 2.5-0.9 3.7q-0.4 1-0.9 1.9l-0.5 0.8c-0.2 0.3-0.4 0.6-0.5 0.8q-1.9 2.6-3.7 5.2c-4.8 6.9-9.5 14-12.5 21.5l-0.5 1.5c-0.2 0.4-0.3 0.9-0.5 1.4-0.3 0.9-0.5 1.9-0.7 2.8-0.2 0.5-0.2 1-0.2 1.5-0.1 0.4-0.2 0.9-0.2 1.4 0 0.9 0 1.8 0.2 2.7 0.1 0.8 0.4 1.9 0.6 2.9l0.8 3.2q0.8 3.1 1.4 6.3c1.7 8.4 3.1 17 3.3 25.7q0.1 3.2-0.1 6.5-0.1 3.2-0.6 6.4c-0.7 4.3-2 8.6-4.5 12.1 2.1-3.8 2.8-8.1 3.2-12.2 0.3-4.2 0.1-8.5-0.3-12.7-1-8.4-2.6-16.7-4.8-24.9q-0.8-3.1-1.7-6.2l-0.8-3c-0.3-1-0.7-2-0.9-3.3-0.4-1.2-0.3-2.4-0.4-3.6 0-0.6 0.1-1.2 0.1-1.8 0-0.6 0.1-1.2 0.2-1.8 0.2-1.1 0.4-2.3 0.7-3.3 0.3-1.2 0.6-2.2 1-3.3 1.5-4.2 3.5-8.2 5.7-12q3.2-5.7 6.9-11 1.8-2.7 3.7-5.3c0.2-0.2 0.3-0.4 0.4-0.6l0.3-0.5q0.3-0.5 0.5-1.1c0.2-0.7 0.5-1.5 0.5-2.4 0.4-3.5-0.5-7.6-1.5-11.7-1-4.1-2.2-8.3-2.6-12.9-0.2-2.3-0.2-4.8 0.3-7.2 0.4-2.4 1.4-4.9 2.8-7 1.5-2 3.3-3.7 5.3-5.1l2.7-1.8c0.9-0.6 1.8-1.1 2.5-1.7 3.2-2.4 6-5.4 8.4-8.6 2.4-3.3 4.4-6.9 6-10.6q1.2-2.9 2-5.8c0.5-2 1-4.1 1.3-6v-0.2c0.3-1.3 0.7-2.4 1.2-3.6q0.7-1.7 1.7-3.3c1.2-2.2 2.7-4.2 4.5-5.9 3.6-3.4 8.1-5.9 12.8-6.9l1.8-0.3c0.6-0.2 1.2-0.1 1.9-0.2 1.2-0.1 2.4 0.1 3.6 0.2 2.4 0.4 4.8 1.1 6.9 2.3 4.1 2.3 7.5 5.8 9.9 9.8z"/><path class="b" d="m119.1 72.7c-0.7 3.6-1.9 7-3.4 10.4-1.5 3.3-3.3 6.5-5.5 9.4-2.2 2.9-4.8 5.6-7.7 7.8l-2.2 1.6c-0.6 0.6-1.2 1.2-1.8 1.8-1 1.4-1.8 2.9-2.3 4.5-1.1 3.3-1.1 6.9-0.9 10.4 0.1 3.6 0.6 7.2 1 10.8 0.5 3.6 0.8 7.2 0.9 10.9 0.1 3.7-0.2 7.5-1.4 11.1-1.2 3.5-2.7 6.8-4.1 10.1-1.4 3.4-2.7 6.7-3.3 10.1-0.6 3.4-0.5 7-0.2 10.5q0.3 2.7 0.7 5.4l0.3 2.6 0.4 2.8c0.3 3.6 0.4 7.3 0.2 10.9-0.2 3.7-0.7 7.3-1.3 10.9-1.3 7.2-3.3 14.2-5.7 21 1.9-7 3.7-14 4.6-21.2 0.4-3.5 0.8-7.1 0.8-10.7 0.1-1.8 0.1-3.6 0-5.4 0-0.9-0.1-1.8-0.2-2.7 0-0.9-0.1-1.7-0.2-2.6-1.1-7.1-2.7-14.4-1.6-21.9 0.6-3.7 2-7.2 3.4-10.5 1.4-3.4 2.9-6.7 4-10 1.1-3.3 1.4-6.8 1.4-10.4-0.1-3.5-0.5-7.1-0.8-10.7-0.4-3.6-0.8-7.2-1-10.9-0.1-3.6 0-7.4 1.3-11 0.6-1.8 1.5-3.6 2.8-5 0.6-0.8 1.3-1.4 2-2l2.3-1.6c2.9-2 5.5-4.5 7.7-7.3 4.6-5.5 7.8-12.1 9.8-19.1z"/><path class="b" d="m155.5 39.6c-1-2.7-2.4-5.2-4.1-7.6-1.6-2.3-3.5-4.5-5.8-6.2-2.2-1.7-4.8-2.9-7.5-3.4-2.7-0.4-5.5-0.1-8.1 0.7-5.3 1.9-10.6 4.3-14.5 8.2-2 2-3.8 4.2-6.1 6.3-2.2 2.1-4.6 3.9-7.2 5.4q-2 1.1-4 2.1l-4 1.9c-2.4 1.1-4.6 2.6-6.4 4.5-1.8 1.9-3 4.3-3.9 6.8-0.8 2.5-1.3 5.2-1.5 8-0.2 2.8-0.3 5.6-0.4 8.6-0.1 2.9-0.2 6-1.3 9.2q-0.3 0.6-0.5 1.2-0.3 0.6-0.7 1.2l-1.1 1.9-2.4 3.7c-1.6 2.4-3.1 4.8-4.6 7.3-2.9 4.9-5.7 9.9-7.5 15.1-0.9 2.6-1.5 5.2-1.6 7.8l0.1 1.8 0.3 2.3q0.1 2.3 0.1 4.5c0 6-0.8 12-2.2 17.8-1.4 5.7-3.6 11.4-6.8 16.5l-1.1 1.9-0.5 0.9-0.5 0.8q-0.8 1.8-1.2 3.7c-0.5 2.6-0.3 5.4 0 8.2 0.8 5.5 2.8 11 4.3 16.7 0.7 2.8 1.4 5.7 1.6 8.7 0.1 3-0.2 5.9-0.7 8.8-0.9 5.8-2.5 11.5-4.7 16.8q1.3-4.1 2.1-8.4c0.6-2.8 1.1-5.7 1.4-8.5 0.2-2.9 0.3-5.8 0.1-8.5-0.3-2.8-1.1-5.6-2-8.3-1.7-5.5-3.9-10.9-5.1-16.8-0.5-3-0.7-6.1-0.3-9.2 0.3-1.6 0.7-3.1 1.3-4.6l0.6-1.1 0.6-1.1 1-1.8c2.8-4.8 4.7-10.2 6-15.7 1.2-5.5 1.8-11.1 1.7-16.7 0-1.4-0.1-2.8-0.2-4.2l-0.2-2.1-0.2-2.5c0.1-3.2 0.8-6.3 1.8-9.2 2-5.8 4.8-11 7.8-16 1.6-2.5 3.2-5 4.8-7.4l2.3-3.7 1.2-1.8 0.4-0.7 0.3-0.8c0.8-2.3 1-5.1 1.1-7.9 0.2-2.9 0.2-5.8 0.6-8.8 0.3-3 0.8-6.1 1.8-9 1.1-3 2.7-5.8 5-8.1 2.2-2.4 4.9-4.1 7.7-5.4l4-1.7q1.9-0.9 3.8-1.9 3.7-1.9 6.8-4.7c2.1-1.8 4-4 6.3-6 2.2-2 4.8-3.7 7.5-5 2.7-1.3 5.5-2.3 8.4-3.2 2.9-0.8 6.1-0.9 9.1-0.3 3 0.7 5.7 2.2 7.9 4.2 4.5 4 7.4 9.3 9.1 14.8z"/><path class="b" d="m84.2 84c3.1-3.1 5.9-6.4 8.2-10 2.3-3.5 4.3-7.3 5.7-11.3 0.3-1 0.7-2 0.9-3.1l0.8-3.1c0.5-2.1 1.2-4.2 2-6.3 1.6-4.1 4-7.9 6.9-11.3 1.5-1.6 3.2-3.2 5-4.4 1.9-1.4 3.9-2.4 5.9-3.3 4.2-1.6 8.6-2.5 13-2.4 4.5-0.1 9 1.3 12.7 3.7 3.6 2.6 6.4 6.1 8.4 9.9-2.4-3.6-5.4-6.8-9-8.9-3.7-2.1-7.9-3.1-12-2.9-8.4 0.2-16.7 3.6-22.3 9.9-2.7 3.1-4.9 6.7-6.5 10.6-0.8 1.9-1.6 3.9-2.1 6q-0.5 1.5-0.9 3.1c-0.3 1-0.7 2.1-1.1 3.1-1.6 4.1-3.9 7.9-6.5 11.4q-2 2.6-4.3 4.9c-1.5 1.6-3.1 3.1-4.8 4.4z"/><path class="b" d="m155.5 21.2q-0.5-2.7-1.6-5.2c-0.7-1.7-1.6-3.3-2.7-4.7-1.1-1.4-2.5-2.5-4.1-3.1-0.8-0.4-1.7-0.5-2.5-0.5-0.9 0-1.8 0.1-2.6 0.3-1.7 0.5-3.3 1.3-4.8 2.2l-4.6 2.9c-3.1 2-6.1 4.1-9.5 5.7-1.7 0.9-3.6 1.4-5.4 1.8-1.9 0.3-3.8 0.4-5.6 0.5-0.9 0-1.9 0-2.7 0.1-0.5 0-0.9 0-1.3 0.1l-1.3 0.2c-1.7 0.3-3.4 0.8-4.8 1.7-2.9 1.7-4.6 4.9-6.4 8-0.9 1.6-1.8 3.2-3.1 4.8-1.4 1.5-3.2 2.6-4.9 3.3-1.7 0.8-3.3 1.4-4.5 2.4-1.2 1.1-2.1 2.5-2.7 4.1-0.4 0.8-0.5 1.7-0.8 2.5-0.2 0.9-0.4 1.7-0.6 2.6q-0.4 2.7-0.8 5.4c-0.5 3.6-0.9 7.2-1.5 10.9-0.3 1.8-0.7 3.6-1.3 5.4-0.6 1.8-1.4 3.6-2.6 5.1l-1 1.1-1.1 1c-0.4 0.3-0.8 0.6-1.2 0.8l-1.1 0.8c-1.3 0.9-2.4 2.4-3.3 3.9-1.9 3.1-3.2 6.4-4.5 9.8-2.5 6.9-4.3 13.9-6 21q0.8-5.4 2.1-10.7c0.8-3.6 1.8-7.1 2.9-10.6 1.1-3.5 2.4-7 4.2-10.2 1-1.7 2-3.3 3.6-4.5l1.2-0.9c0.3-0.2 0.7-0.4 1-0.7l0.9-0.9 0.8-0.9c2.1-2.8 2.8-6.3 3.4-9.9 0.6-3.5 0.9-7.2 1.4-10.8q0.3-2.7 0.8-5.5c0.2-0.9 0.4-1.8 0.6-2.7 0.3-0.9 0.4-1.9 0.8-2.8 0.7-1.8 1.7-3.6 3.3-5 1.5-1.4 3.4-2.1 5.1-2.8 1.6-0.7 3-1.5 4.1-2.7 1-1.2 2-2.8 2.9-4.4 0.9-1.5 1.8-3.2 3-4.7 1.1-1.6 2.5-3 4.2-4 1.7-1.1 3.6-1.6 5.5-2l1.4-0.2c0.5 0 1 0 1.5-0.1 0.9 0 1.8 0 2.7 0 3.6-0.2 7.2-0.4 10.4-1.9 3.2-1.4 6.3-3.5 9.4-5.3l4.7-2.8c1.6-0.9 3.4-1.8 5.2-2.2 1-0.2 1.9-0.3 2.9-0.2 1 0.1 1.9 0.2 2.8 0.6 1.8 0.8 3.2 2.2 4.3 3.7 2.2 3 3.3 6.6 3.8 10.2z"/><path class="b" d="m157.9 46.9c2.8-3.7 6.4-6.7 10.5-8.6 2.1-0.9 4.3-1.4 6.5-1.6 1.1 0 2.1-0.1 3.2 0.2 0.6 0 1.1 0 1.6 0.2l1.6 0.4c0.6 0.1 1.1 0.3 1.6 0.6l1.5 0.6c0.5 0.2 1 0.5 1.5 0.7 0.5 0.3 1 0.5 1.4 0.8 1.9 1.1 3.5 2.6 5 4.2 1.5 1.5 2.7 3.4 3.7 5.3q0.7 1.4 1.3 2.9c0.3 1 0.7 2.1 0.8 3v-0.2c0.5 4.6 1.5 8.8 3.1 13 1.5 4.2 3.5 8.3 6.1 11.9 2.6 3.7 5.7 7.1 9.2 9.9 0.9 0.8 1.9 1.4 2.8 2l2.6 1.8c1.5 1.1 2.8 2.4 3.8 3.8 2 2.9 2.5 6.6 2.1 10.5-0.4 3.9-1.5 7.9-2.5 12.1-0.5 2.1-1 4.2-1.4 6.5-0.3 2.3-0.5 4.6-0.2 7.2 0.1 1.2 0.4 2.5 0.9 3.7q0.4 1 0.8 1.9l0.6 0.8c0.1 0.3 0.3 0.6 0.5 0.8q1.9 2.6 3.7 5.2c4.8 6.9 9.5 14 12.5 21.5l0.5 1.5c0.2 0.4 0.3 0.9 0.5 1.4 0.3 0.9 0.5 1.9 0.7 2.8 0.1 0.5 0.2 1 0.2 1.5 0.1 0.4 0.1 0.9 0.2 1.4-0.1 0.9 0 1.8-0.2 2.7-0.1 0.8-0.4 1.9-0.7 2.9l-0.8 3.2q-0.7 3.1-1.4 6.3c-1.7 8.4-3 17-3.2 25.7q-0.1 3.2 0 6.5 0.2 3.2 0.7 6.4c0.7 4.3 1.9 8.6 4.5 12.1-2.2-3.8-2.9-8.1-3.2-12.2-0.3-4.2-0.1-8.5 0.3-12.7 0.9-8.4 2.6-16.7 4.8-24.9q0.7-3.1 1.6-6.2l0.9-3c0.3-1 0.6-2 0.9-3.3 0.3-1.2 0.3-2.4 0.4-3.6 0-0.6-0.1-1.2-0.1-1.8-0.1-0.6-0.1-1.2-0.2-1.8-0.2-1.1-0.4-2.3-0.7-3.3-0.3-1.2-0.7-2.2-1.1-3.3-1.5-4.2-3.5-8.2-5.6-12q-3.3-5.7-6.9-11-1.9-2.7-3.7-5.3c-0.2-0.2-0.3-0.4-0.4-0.6l-0.3-0.5q-0.3-0.5-0.5-1.1c-0.3-0.7-0.5-1.5-0.6-2.4-0.4-3.5 0.6-7.6 1.6-11.7 1-4.1 2.1-8.3 2.6-12.9 0.2-2.3 0.2-4.8-0.3-7.2-0.5-2.4-1.4-4.9-2.9-7-1.4-2-3.3-3.7-5.2-5.1l-2.8-1.8c-0.8-0.6-1.7-1.1-2.5-1.7-3.2-2.4-6-5.4-8.4-8.6-2.4-3.3-4.3-6.9-5.9-10.6q-1.2-2.9-2-5.8c-0.6-2-1.1-4.1-1.3-6v-0.2c-0.4-1.3-0.8-2.4-1.2-3.6q-0.8-1.7-1.7-3.3c-1.3-2.2-2.8-4.2-4.6-5.9-3.5-3.4-8-5.9-12.8-6.9l-1.8-0.3c-0.6-0.2-1.2-0.1-1.8-0.2-1.2-0.1-2.4 0.1-3.7 0.2-2.4 0.4-4.7 1.1-6.8 2.3-4.2 2.3-7.5 5.8-9.9 9.8z"/><path class="b" d="m193.6 72.7c0.8 3.6 2 7 3.4 10.4 1.5 3.3 3.3 6.5 5.5 9.4 2.2 2.9 4.8 5.6 7.8 7.8l2.1 1.6c0.7 0.6 1.3 1.2 1.8 1.8 1.1 1.4 1.9 2.9 2.4 4.5 1 3.3 1.1 6.9 0.9 10.4-0.2 3.6-0.6 7.2-1.1 10.8-0.4 3.6-0.8 7.2-0.9 10.9 0 3.7 0.3 7.5 1.4 11.1 1.3 3.5 2.7 6.8 4.1 10.1 1.5 3.4 2.8 6.7 3.4 10.1 0.6 3.4 0.5 7 0.2 10.5q-0.3 2.7-0.7 5.4l-0.4 2.6-0.3 2.8c-0.4 3.6-0.5 7.3-0.2 10.9 0.2 3.7 0.7 7.3 1.3 10.9 1.3 7.2 3.3 14.2 5.7 21-1.9-7-3.7-14-4.6-21.2-0.5-3.5-0.8-7.1-0.9-10.7-0.1-1.8 0-3.6 0-5.4 0.1-0.9 0.2-1.8 0.2-2.7 0.1-0.9 0.2-1.7 0.3-2.6 1-7.1 2.7-14.4 1.6-21.9-0.7-3.7-2.1-7.2-3.5-10.5-1.4-3.4-2.8-6.7-4-10-1-3.3-1.3-6.8-1.3-10.4 0.1-3.5 0.4-7.1 0.8-10.7 0.4-3.6 0.8-7.2 0.9-10.9 0.2-3.6 0-7.4-1.2-11-0.6-1.8-1.6-3.6-2.8-5-0.6-0.8-1.3-1.4-2.1-2l-2.2-1.6c-2.9-2-5.5-4.5-7.8-7.3-4.5-5.5-7.7-12.1-9.8-19.1z"/><path class="b" d="m157.2 39.6c1.1-2.7 2.5-5.2 4.1-7.6 1.7-2.3 3.6-4.5 5.8-6.2 2.3-1.7 4.8-2.9 7.5-3.4 2.8-0.4 5.5-0.1 8.2 0.7 5.3 1.9 10.5 4.3 14.4 8.2 2 2 3.9 4.2 6.1 6.3 2.2 2.1 4.7 3.9 7.3 5.4q2 1.1 4 2.1l3.9 1.9c2.4 1.1 4.7 2.6 6.4 4.5 1.8 1.9 3.1 4.3 3.9 6.8 0.9 2.5 1.3 5.2 1.5 8 0.3 2.8 0.3 5.6 0.4 8.6 0.2 2.9 0.3 6 1.4 9.2q0.2 0.6 0.5 1.2 0.3 0.6 0.6 1.2l1.2 1.9 2.4 3.7c1.5 2.4 3.1 4.8 4.5 7.3 3 4.9 5.8 9.9 7.6 15.1 0.8 2.6 1.5 5.2 1.5 7.8l-0.1 1.8-0.2 2.3q-0.2 2.3-0.2 4.5c0 6 0.8 12 2.3 17.8 1.4 5.7 3.6 11.4 6.7 16.5l1.2 1.9 0.5 0.9 0.4 0.8q0.9 1.8 1.2 3.7c0.5 2.6 0.4 5.4 0 8.2-0.8 5.5-2.7 11-4.2 16.7-0.8 2.8-1.5 5.7-1.6 8.7-0.1 3 0.2 5.9 0.6 8.8 1 5.8 2.6 11.5 4.8 16.8q-1.3-4.1-2.2-8.4c-0.6-2.8-1-5.7-1.3-8.5-0.3-2.9-0.4-5.8-0.1-8.5 0.3-2.8 1.1-5.6 2-8.3 1.7-5.5 3.9-10.9 5-16.8 0.6-3 0.8-6.1 0.3-9.2-0.2-1.6-0.6-3.1-1.3-4.6l-0.5-1.1-0.6-1.1-1.1-1.8c-2.7-4.8-4.6-10.2-5.9-15.7-1.2-5.5-1.9-11.1-1.8-16.7 0.1-1.4 0.1-2.8 0.2-4.2l0.3-2.1 0.1-2.5c0-3.2-0.8-6.3-1.7-9.2-2-5.8-4.9-11-7.9-16-1.5-2.5-3.1-5-4.7-7.4l-2.4-3.7-1.1-1.8-0.4-0.7-0.3-0.8c-0.8-2.3-1-5.1-1.2-7.9-0.1-2.9-0.2-5.8-0.5-8.8-0.3-3-0.8-6.1-1.9-9-1-3-2.7-5.8-4.9-8.1-2.2-2.4-4.9-4.1-7.8-5.4l-3.9-1.7q-2-0.9-3.8-1.9-3.7-1.9-6.8-4.7c-2.1-1.8-4-4-6.3-6-2.3-2-4.9-3.7-7.6-5-2.7-1.3-5.4-2.3-8.3-3.2-2.9-0.8-6.1-0.9-9.1-0.3-3 0.7-5.8 2.2-8 4.2-4.5 4-7.3 9.3-9.1 14.8z"/><path class="b" d="m228.6 84c-3.1-3.1-5.9-6.4-8.2-10-2.4-3.5-4.3-7.3-5.7-11.3-0.4-1-0.7-2-0.9-3.1l-0.8-3.1c-0.6-2.1-1.3-4.2-2.1-6.3-1.6-4.1-3.9-7.9-6.9-11.3-1.5-1.6-3.1-3.2-5-4.4-1.8-1.4-3.8-2.4-5.9-3.3-4.1-1.6-8.5-2.5-13-2.4-4.4-0.1-8.9 1.3-12.6 3.7-3.7 2.6-6.5 6.1-8.5 9.9 2.5-3.6 5.4-6.8 9.1-8.9 3.6-2.1 7.8-3.1 12-2.9 8.4 0.2 16.7 3.6 22.2 9.9 2.8 3.1 5 6.7 6.6 10.6 0.8 1.9 1.5 3.9 2.1 6q0.4 1.5 0.9 3.1c0.3 1 0.7 2.1 1.1 3.1 1.6 4.1 3.8 7.9 6.5 11.4q2 2.6 4.2 4.9c1.6 1.6 3.1 3.1 4.9 4.4z"/><path class="b" d="m157.2 21.2q0.6-2.7 1.7-5.2c0.7-1.7 1.5-3.3 2.6-4.7 1.2-1.4 2.5-2.5 4.2-3.1 0.8-0.4 1.6-0.5 2.5-0.5 0.9 0 1.7 0.1 2.6 0.3 1.7 0.5 3.2 1.3 4.8 2.2l4.6 2.9c3.1 2 6.1 4.1 9.5 5.7 1.7 0.9 3.5 1.4 5.4 1.8 1.9 0.3 3.7 0.4 5.6 0.5 0.9 0 1.8 0 2.7 0.1 0.4 0 0.9 0 1.3 0.1l1.3 0.2c1.7 0.3 3.3 0.8 4.7 1.7 2.9 1.7 4.6 4.9 6.5 8 0.9 1.6 1.8 3.2 3.1 4.8 1.3 1.5 3.2 2.6 4.9 3.3 1.7 0.8 3.3 1.4 4.5 2.4 1.2 1.1 2.1 2.5 2.7 4.1 0.3 0.8 0.5 1.7 0.8 2.5 0.2 0.9 0.4 1.7 0.5 2.6q0.5 2.7 0.9 5.4c0.5 3.6 0.9 7.2 1.5 10.9 0.3 1.8 0.6 3.6 1.2 5.4 0.7 1.8 1.5 3.6 2.7 5.1l1 1.1 1.1 1c0.3 0.3 0.8 0.6 1.2 0.8l1.1 0.8c1.3 0.9 2.4 2.4 3.3 3.9 1.8 3.1 3.2 6.4 4.4 9.8 2.5 6.9 4.4 13.9 6.1 21q-0.9-5.4-2.1-10.7c-0.9-3.6-1.8-7.1-2.9-10.6-1.1-3.5-2.4-7-4.3-10.2-0.9-1.7-1.9-3.3-3.5-4.5l-1.2-0.9c-0.4-0.2-0.7-0.4-1-0.7l-1-0.9-0.8-0.9c-2-2.8-2.8-6.3-3.4-9.9-0.5-3.5-0.9-7.2-1.3-10.8q-0.4-2.7-0.8-5.5c-0.2-0.9-0.4-1.8-0.6-2.7-0.3-0.9-0.5-1.9-0.9-2.8-0.6-1.8-1.7-3.6-3.2-5-1.6-1.4-3.5-2.1-5.1-2.8-1.6-0.7-3-1.5-4.1-2.7-1.1-1.2-2-2.8-2.9-4.4-1-1.5-1.9-3.2-3-4.7-1.1-1.6-2.5-3-4.3-4-1.7-1.1-3.6-1.6-5.5-2l-1.4-0.2c-0.5 0-0.9 0-1.4-0.1-1 0-1.9 0-2.8 0-3.6-0.2-7.1-0.4-10.3-1.9-3.2-1.4-6.3-3.5-9.4-5.3l-4.8-2.8c-1.6-0.9-3.3-1.8-5.2-2.2-0.9-0.2-1.9-0.3-2.8-0.2-1 0.1-2 0.2-2.8 0.6-1.8 0.8-3.3 2.2-4.3 3.7-2.2 3-3.3 6.6-3.9 10.2z"/></g></svg>